<?xml version="1.0" encoding="utf-8"?>
<!-- Generator: Adobe Illustrator 22.1.0, SVG Export Plug-In . SVG Version: 6.00 Build 0)  -->
<svg version="1.1" id="Layer_4" xmlns="http://www.w3.org/2000/svg" xmlns:xlink="http://www.w3.org/1999/xlink" x="0px" y="0px"
	 viewBox="0 0 1140 393" enable-background="new 0 0 1140 393" xml:space="preserve">
<rect id="Rectangle_1350_copy_3_1_" x="-0.7" y="54.1" fill="#F2F2F2" width="453.3" height="298.9"/>
<rect id="Rectangle_1350_copy_3_2_" x="452" y="55" fill="#D2D8DB" width="688" height="300"/>
<path id="Shape_1353_copy_4" fill="#A2ACB5" d="M-0.7,0h0.9v354.4h-0.9V0z"/>
<path id="Shape_1353_copy_4_1_" fill="#A2ACB5" d="M997.9,141.1v-0.9h60.1v0.9H997.9z"/>
<path id="Shape_1353_copy" fill="#A2ACB5" d="M683.2,47.1h0.9V338h-0.9V47.1z"/>
<path id="Shape_1353_copy_2_" fill="#C5C7C9" d="M220.3,47.1h0.9V338h-0.9V47.1z"/>
<path id="Shape_1353_copy_2" fill="#A2ACB5" d="M914.6,47.1h0.9v290.9h-0.9V47.1z"/>
<g>
	<path fill="#333333" d="M87.3,92.9h2.9c1.2,0,1.9,0.3,2.6,0.9c0.6,0.6,0.9,1.4,0.9,2.4c0,2.3-1.3,3.5-3.9,3.5h-1v5h-1.5V92.9z
		 M88.8,98.6h0.8c1.8,0,2.5-0.8,2.5-2.2c0-1.6-0.9-2.3-2.4-2.3h-0.9V98.6z"/>
	<path fill="#333333" d="M95.2,98c0-0.6-0.1-1.3-0.1-1.9h1.4l0.1,1.4h0C97,96.4,97.8,96,99,96v1.4c-0.2,0-0.4-0.1-0.5-0.1
		c-1.1,0-1.9,1-1.9,2.8v4.6h-1.4V98z"/>
	<path fill="#333333" d="M101.8,92.6v1.7h-1.6v-1.7H101.8z M100.3,96.1h1.4v8.7h-1.4V96.1z"/>
	<path fill="#333333" d="M104,98c0-0.6-0.1-1.3-0.1-1.9h1.4l0.1,1.3h0c0.5-1,1.2-1.4,2.1-1.4c0.9,0,1.6,0.5,2,1.4
		c0.5-0.9,1.1-1.4,2.1-1.4c1.5,0,2.5,0.9,2.5,2.8v6h-1.4v-5.9c0-1.1-0.5-1.6-1.3-1.6c-1.1,0-1.6,0.6-1.6,2.2v5.4h-1.4v-5.9
		c0-1.1-0.5-1.6-1.3-1.6c-1.1,0-1.6,0.6-1.6,2.2v5.4H104V98z"/>
	<path fill="#333333" d="M116.6,96.7c0.7-0.5,1.6-0.7,2.4-0.7c1.3,0,2,0.5,2.3,0.8c0.4,0.4,0.7,0.9,0.7,2.1v4.5c0,0.5,0,1,0.1,1.3
		h-1.3l-0.1-1.2h0c-0.4,0.7-1.1,1.3-2.4,1.3c-1.4,0-2.5-0.8-2.5-2.5c0-1.7,1.1-2.9,4.1-2.9h0.8v-0.4c0-0.6-0.1-1-0.3-1.4
		c-0.3-0.4-0.8-0.5-1.4-0.5c-0.9,0-1.7,0.4-2.2,0.9L116.6,96.7z M120.7,100.5c-0.3,0-0.6,0-1,0c-1.7,0-2.5,0.8-2.5,1.8
		c0,0.9,0.5,1.5,1.5,1.5c1.2,0,2-1,2-2.2V100.5z"/>
	<path fill="#333333" d="M124.1,98c0-0.6-0.1-1.3-0.1-1.9h1.4l0.1,1.4h0c0.5-1.1,1.2-1.5,2.5-1.5v1.4c-0.2,0-0.4-0.1-0.5-0.1
		c-1.1,0-1.9,1-1.9,2.8v4.6h-1.4V98z"/>
	<path fill="#333333" d="M131.9,106.6c-0.4,1.5-1,2-2.1,2c-0.3,0-0.7,0-1-0.1l0.1-1.3c0.2,0.1,0.5,0.2,0.8,0.2c0.4,0,0.7-0.2,1-1.1
		l0.3-1.3l-2.7-8.8h1.5l1.9,7.1h0l1.8-7.1h1.4L131.9,106.6z"/>
</g>
<g>
	<path fill="#333333" d="M309.2,94.7c-0.6-0.3-1.3-0.5-2-0.5c-1.1,0-1.9,0.8-1.9,1.8c0,0.8,0.3,1.2,2,2.2c1.8,1.1,2.4,2.1,2.4,3.5
		c0,1.9-1.2,3.4-3.5,3.4c-1,0-1.9-0.2-2.5-0.5v-1.5c0.7,0.4,1.6,0.8,2.3,0.8c1.3,0,2.1-0.9,2.1-1.9c0-0.9-0.2-1.4-1.8-2.4
		c-2.1-1.3-2.6-2-2.6-3.6c0-2,1.5-3,3.3-3c0.8,0,1.6,0.2,2.1,0.4V94.7z"/>
	<path fill="#333333" d="M312.6,100.9c0,2,0.8,2.9,2.4,2.9c0.7,0,1.5-0.4,2-0.7l0.1,1.3c-0.7,0.3-1.6,0.5-2.4,0.5
		c-2.3,0-3.5-1.7-3.5-4.5s1.2-4.5,3.3-4.5c2,0,3,1.6,3,4.1v0.8H312.6z M316.1,99.8c0-1.8-0.6-2.7-1.7-2.7c-0.9,0-1.7,0.7-1.8,2.7
		H316.1z"/>
	<path fill="#333333" d="M324.2,97.6c-0.5-0.3-1-0.4-1.6-0.4c-1.4,0-2.4,1-2.4,3.3c0,2,1,3.1,2.3,3.1c0.7,0,1.3-0.2,1.8-0.5l0.1,1.3
		c-0.4,0.2-1.2,0.4-1.8,0.4c-2.6,0-3.8-1.9-3.8-4.4c0-2.8,1.5-4.5,3.9-4.5c0.6,0,1.3,0.1,1.7,0.3L324.2,97.6z"/>
	<path fill="#333333" d="M328.8,96c2.3,0,3.5,1.7,3.5,4.5s-1.2,4.5-3.5,4.5s-3.5-1.7-3.5-4.5S326.5,96,328.8,96z M328.8,103.8
		c1.4,0,2-1.1,2-3.3s-0.6-3.3-2-3.3c-1.4,0-2,1.1-2,3.3S327.4,103.8,328.8,103.8z"/>
	<path fill="#333333" d="M333.9,98c0-0.6-0.1-1.3-0.1-1.9h1.4l0.1,1.3h0c0.5-1,1.2-1.4,2.2-1.4c1.5,0,2.5,0.9,2.5,2.8v6h-1.4v-5.6
		c0-1.4-0.5-2-1.4-2c-1.1,0-1.8,0.8-1.8,2.3v5.2h-1.4V98z"/>
	<path fill="#333333" d="M348.3,103.2c0,0.5,0.1,1.1,0.1,1.6H347l-0.1-1.3h0c-0.4,0.7-1,1.4-2.3,1.4c-1.8,0-3-1.5-3-4.5
		s1.2-4.5,3-4.5c1,0,1.6,0.4,2.2,1.3h0v-5.3h1.4V103.2z M345,97.2c-1.3,0-1.9,1.1-1.9,3.3s0.6,3.3,1.9,3.3c1.3,0,1.9-1.1,1.9-3.3
		S346.3,97.2,345,97.2z"/>
	<path fill="#333333" d="M350.6,96.7c0.7-0.5,1.6-0.7,2.4-0.7c1.3,0,2,0.5,2.3,0.8c0.4,0.4,0.7,0.9,0.7,2.1v4.5c0,0.5,0,1,0.1,1.3
		h-1.3l-0.1-1.2h0c-0.4,0.7-1.1,1.3-2.4,1.3c-1.4,0-2.5-0.8-2.5-2.5c0-1.7,1.1-2.9,4.1-2.9h0.8v-0.4c0-0.6-0.1-1-0.3-1.4
		c-0.3-0.4-0.9-0.5-1.4-0.5c-0.9,0-1.7,0.4-2.2,0.9L350.6,96.7z M354.8,100.5c-0.3,0-0.6,0-1,0c-1.7,0-2.5,0.8-2.5,1.8
		c0,0.9,0.5,1.5,1.5,1.5c1.2,0,2-1,2-2.2V100.5z"/>
	<path fill="#333333" d="M358.1,98c0-0.6-0.1-1.3-0.1-1.9h1.4l0.1,1.4h0c0.5-1.1,1.2-1.5,2.5-1.5v1.4c-0.2,0-0.4-0.1-0.5-0.1
		c-1.1,0-1.9,1-1.9,2.8v4.6h-1.4V98z"/>
	<path fill="#333333" d="M365.9,106.6c-0.4,1.5-1,2-2.1,2c-0.3,0-0.7,0-1-0.1l0.1-1.3c0.2,0.1,0.5,0.2,0.8,0.2c0.4,0,0.7-0.2,1-1.1
		l0.3-1.3l-2.7-8.8h1.5l1.9,7.1h0l1.8-7.1h1.4L365.9,106.6z"/>
</g>
<g>
	<path fill="#333333" d="M499.7,92.9h5.5v1.3h-4V98h3.8v1.3h-3.8v4.2h4.2v1.3h-5.7V92.9z"/>
	<path fill="#333333" d="M512.1,103.6L512.1,103.6c-0.6,0.9-1.3,1.3-2.2,1.3c-1.8,0-3-1.5-3-4.5s1.2-4.5,3-4.5
		c1.3,0,1.9,0.7,2.3,1.4h0l0.1-1.3h1.4c0,0.5-0.1,1.1-0.1,1.6v10.7h-1.4V103.6z M510.2,97.2c-1.3,0-1.9,1.1-1.9,3.3s0.6,3.3,1.9,3.3
		c1.3,0,1.9-1.1,1.9-3.3S511.5,97.2,510.2,97.2z"/>
	<path fill="#333333" d="M521.6,102.9c0,0.6,0.1,1.3,0.1,1.9h-1.4l-0.1-1.3h0c-0.5,1-1.2,1.4-2.2,1.4c-1.5,0-2.5-0.9-2.5-2.8v-6h1.4
		v5.6c0,1.4,0.5,2,1.4,2c1.1,0,1.8-0.8,1.8-2.3v-5.2h1.4V102.9z"/>
	<path fill="#333333" d="M525.3,92.6v1.7h-1.6v-1.7H525.3z M523.8,96.1h1.4v8.7h-1.4V96.1z"/>
	<path fill="#333333" d="M531.3,104.7c-0.3,0.1-0.8,0.2-1.2,0.2c-1.3,0-2-0.5-2-2.1v-5.6h-1.4v-1.2h1.4v-1.8l1.4-0.4v2.2h1.8v1.2
		h-1.8v5.1c0,1,0.3,1.4,0.9,1.4c0.4,0,0.6-0.1,0.9-0.2V104.7z"/>
	<path fill="#333333" d="M535.2,106.6c-0.4,1.5-1,2-2.1,2c-0.3,0-0.7,0-1-0.1l0.1-1.3c0.2,0.1,0.5,0.2,0.8,0.2c0.4,0,0.7-0.2,1-1.1
		l0.3-1.3l-2.7-8.8h1.5l1.9,7.1h0l1.8-7.1h1.4L535.2,106.6z"/>
	<path fill="#333333" d="M550.8,104.6c-0.7,0.2-1.5,0.4-2.2,0.4c-3.8,0-5.3-2.9-5.3-6.1c0-3.7,2.2-6,5.3-6c0.9,0,1.7,0.2,2.2,0.4
		v1.5c-0.6-0.4-1.4-0.6-2.2-0.6c-1.9,0-3.7,1.5-3.7,4.4c0,3.1,1.2,5.1,3.8,5.1c0.8,0,1.5-0.2,2.1-0.6V104.6z"/>
	<path fill="#333333" d="M555.7,96c2.3,0,3.5,1.7,3.5,4.5s-1.2,4.5-3.5,4.5s-3.5-1.7-3.5-4.5S553.4,96,555.7,96z M555.7,103.8
		c1.4,0,2-1.1,2-3.3s-0.6-3.3-2-3.3c-1.4,0-2,1.1-2,3.3S554.3,103.8,555.7,103.8z"/>
	<path fill="#333333" d="M560.5,99.4h3.7v1.2h-3.7V99.4z"/>
	<path fill="#333333" d="M566.1,92.9h1.5v11.9h-1.5V92.9z"/>
	<path fill="#333333" d="M570,98c0-0.6-0.1-1.3-0.1-1.9h1.4l0.1,1.3h0c0.5-1,1.2-1.4,2.2-1.4c1.5,0,2.5,0.9,2.5,2.8v6h-1.4v-5.6
		c0-1.4-0.5-2-1.4-2c-1.1,0-1.8,0.8-1.8,2.3v5.2H570V98z"/>
	<path fill="#333333" d="M577.3,96.1h1.6l1.9,7.2h0l1.9-7.2h1.5l-2.6,8.7h-1.7L577.3,96.1z"/>
	<path fill="#333333" d="M586.5,100.9c0,2,0.8,2.9,2.4,2.9c0.7,0,1.5-0.4,2-0.7l0.1,1.3c-0.7,0.3-1.6,0.5-2.4,0.5
		c-2.3,0-3.5-1.7-3.5-4.5s1.2-4.5,3.3-4.5c2,0,3,1.6,3,4.1v0.8H586.5z M589.9,99.8c0-1.8-0.6-2.7-1.7-2.7c-0.9,0-1.7,0.7-1.8,2.7
		H589.9z"/>
	<path fill="#333333" d="M592.6,103.1c0.6,0.4,1.3,0.6,2,0.6c1.1,0,1.6-0.6,1.6-1.2c0-0.6-0.3-1-1.1-1.4l-1-0.4
		c-1.2-0.6-1.7-1.1-1.7-2.2c0-1.4,1.1-2.5,2.8-2.5c0.7,0,1.3,0.1,1.8,0.3l-0.1,1.2c-0.4-0.2-1.1-0.4-1.7-0.4c-0.9,0-1.4,0.5-1.4,1.2
		c0,0.7,0.5,1.1,1.5,1.5l0.5,0.2c1.1,0.4,1.7,1.1,1.7,2.2c0,1.5-0.8,2.7-2.8,2.7c-0.9,0-1.7-0.2-2.3-0.5L592.6,103.1z"/>
	<path fill="#333333" d="M603.1,104.7c-0.3,0.1-0.8,0.2-1.2,0.2c-1.3,0-2-0.5-2-2.1v-5.6h-1.4v-1.2h1.4v-1.8l1.4-0.4v2.2h1.8v1.2
		h-1.8v5.1c0,1,0.3,1.4,0.9,1.4c0.4,0,0.6-0.1,0.9-0.2V104.7z"/>
	<path fill="#333333" d="M604.3,98c0-0.6-0.1-1.3-0.1-1.9h1.4l0.1,1.3h0c0.5-1,1.2-1.4,2.1-1.4c0.9,0,1.6,0.5,2,1.4
		c0.5-0.9,1.1-1.4,2.1-1.4c1.5,0,2.5,0.9,2.5,2.8v6H613v-5.9c0-1.1-0.5-1.6-1.3-1.6c-1.1,0-1.6,0.6-1.6,2.2v5.4h-1.4v-5.9
		c0-1.1-0.5-1.6-1.3-1.6c-1.1,0-1.6,0.6-1.6,2.2v5.4h-1.4V98z"/>
	<path fill="#333333" d="M617.6,100.9c0,2,0.8,2.9,2.4,2.9c0.7,0,1.5-0.4,2-0.7l0.1,1.3c-0.7,0.3-1.6,0.5-2.4,0.5
		c-2.3,0-3.5-1.7-3.5-4.5s1.2-4.5,3.3-4.5c2,0,3,1.6,3,4.1v0.8H617.6z M621.1,99.8c0-1.8-0.6-2.7-1.7-2.7c-0.9,0-1.7,0.7-1.8,2.7
		H621.1z"/>
	<path fill="#333333" d="M624.1,98c0-0.6-0.1-1.3-0.1-1.9h1.4l0.1,1.3h0c0.5-1,1.2-1.4,2.2-1.4c1.5,0,2.5,0.9,2.5,2.8v6h-1.4v-5.6
		c0-1.4-0.5-2-1.4-2c-1.1,0-1.8,0.8-1.8,2.3v5.2h-1.4V98z"/>
	<path fill="#333333" d="M636.1,104.7c-0.3,0.1-0.8,0.2-1.2,0.2c-1.3,0-2-0.5-2-2.1v-5.6h-1.4v-1.2h1.4v-1.8l1.4-0.4v2.2h1.8v1.2
		h-1.8v5.1c0,1,0.3,1.4,0.9,1.4c0.4,0,0.6-0.1,0.9-0.2V104.7z"/>
	<path fill="#333333" d="M637,103.1c0.6,0.4,1.3,0.6,2,0.6c1.1,0,1.6-0.6,1.6-1.2c0-0.6-0.3-1-1.1-1.4l-1-0.4
		c-1.2-0.6-1.7-1.1-1.7-2.2c0-1.4,1.1-2.5,2.8-2.5c0.7,0,1.3,0.1,1.8,0.3l-0.1,1.2c-0.4-0.2-1.1-0.4-1.7-0.4c-0.9,0-1.4,0.5-1.4,1.2
		c0,0.7,0.5,1.1,1.5,1.5l0.5,0.2c1.1,0.4,1.7,1.1,1.7,2.2c0,1.5-0.8,2.7-2.8,2.7c-0.9,0-1.7-0.2-2.3-0.5L637,103.1z"/>
</g>
<g>
	<path fill="#333333" d="M756.7,92.9h2.9c1.2,0,1.9,0.3,2.6,0.9c0.6,0.6,0.9,1.4,0.9,2.4c0,2.3-1.3,3.5-3.9,3.5h-1v5h-1.5V92.9z
		 M758.2,98.6h0.8c1.8,0,2.5-0.8,2.5-2.2c0-1.6-0.9-2.3-2.4-2.3h-0.8V98.6z"/>
	<path fill="#333333" d="M764.6,98c0-0.6-0.1-1.3-0.1-1.9h1.4l0.1,1.4h0c0.5-1.1,1.2-1.5,2.5-1.5v1.4c-0.2,0-0.4-0.1-0.5-0.1
		c-1.1,0-1.9,1-1.9,2.8v4.6h-1.4V98z"/>
	<path fill="#333333" d="M771.3,92.6v1.7h-1.6v-1.7H771.3z M769.8,96.1h1.4v8.7h-1.4V96.1z"/>
	<path fill="#333333" d="M772.6,96.1h1.6l1.9,7.2h0l1.9-7.2h1.5l-2.6,8.7h-1.7L772.6,96.1z"/>
	<path fill="#333333" d="M780.7,96.7c0.7-0.5,1.6-0.7,2.4-0.7c1.3,0,2,0.5,2.3,0.8c0.4,0.4,0.7,0.9,0.7,2.1v4.5c0,0.5,0,1,0.1,1.3
		H785l-0.1-1.2h0c-0.4,0.7-1.1,1.3-2.4,1.3c-1.4,0-2.5-0.8-2.5-2.5c0-1.7,1.1-2.9,4.1-2.9h0.8v-0.4c0-0.6-0.1-1-0.3-1.4
		c-0.3-0.4-0.9-0.5-1.4-0.5c-0.9,0-1.7,0.4-2.2,0.9L780.7,96.7z M784.9,100.5c-0.3,0-0.6,0-1,0c-1.7,0-2.5,0.8-2.5,1.8
		c0,0.9,0.5,1.5,1.5,1.5c1.2,0,2-1,2-2.2V100.5z"/>
	<path fill="#333333" d="M792.1,104.7c-0.3,0.1-0.8,0.2-1.2,0.2c-1.3,0-2-0.5-2-2.1v-5.6h-1.4v-1.2h1.4v-1.8l1.4-0.4v2.2h1.8v1.2
		h-1.8v5.1c0,1,0.3,1.4,0.9,1.4c0.4,0,0.6-0.1,0.9-0.2V104.7z"/>
	<path fill="#333333" d="M794.4,100.9c0,2,0.8,2.9,2.4,2.9c0.7,0,1.5-0.4,2-0.7l0.1,1.3c-0.7,0.3-1.6,0.5-2.4,0.5
		c-2.3,0-3.5-1.7-3.5-4.5s1.2-4.5,3.3-4.5c2,0,3,1.6,3,4.1v0.8H794.4z M797.8,99.8c0-1.8-0.6-2.7-1.7-2.7c-0.9,0-1.7,0.7-1.8,2.7
		H797.8z"/>
	<path fill="#333333" d="M812.2,104.6c-0.7,0.2-1.5,0.4-2.2,0.4c-3.8,0-5.3-2.9-5.3-6.1c0-3.7,2.2-6,5.3-6c0.9,0,1.7,0.2,2.2,0.4
		v1.5c-0.6-0.4-1.4-0.6-2.2-0.6c-1.9,0-3.7,1.5-3.7,4.4c0,3.1,1.2,5.1,3.8,5.1c0.8,0,1.5-0.2,2.1-0.6V104.6z"/>
	<path fill="#333333" d="M814,98c0-0.6-0.1-1.3-0.1-1.9h1.4l0.1,1.4h0c0.5-1.1,1.2-1.5,2.5-1.5v1.4c-0.2,0-0.4-0.1-0.5-0.1
		c-1.1,0-1.9,1-1.9,2.8v4.6H814V98z"/>
	<path fill="#333333" d="M820.1,100.9c0,2,0.8,2.9,2.4,2.9c0.7,0,1.5-0.4,2-0.7l0.1,1.3c-0.7,0.3-1.6,0.5-2.4,0.5
		c-2.3,0-3.5-1.7-3.5-4.5s1.2-4.5,3.3-4.5c2,0,3,1.6,3,4.1v0.8H820.1z M823.6,99.8c0-1.8-0.6-2.7-1.7-2.7c-0.9,0-1.7,0.7-1.8,2.7
		H823.6z"/>
	<path fill="#333333" d="M832.9,103.2c0,0.5,0.1,1.1,0.1,1.6h-1.4l-0.1-1.3h0c-0.4,0.7-1,1.4-2.3,1.4c-1.8,0-3-1.5-3-4.5
		s1.2-4.5,3-4.5c1,0,1.6,0.4,2.2,1.3h0v-5.3h1.4V103.2z M829.5,97.2c-1.3,0-1.9,1.1-1.9,3.3s0.6,3.3,1.9,3.3s1.9-1.1,1.9-3.3
		S830.8,97.2,829.5,97.2z"/>
	<path fill="#333333" d="M836.4,92.6v1.7h-1.6v-1.7H836.4z M834.9,96.1h1.4v8.7h-1.4V96.1z"/>
	<path fill="#333333" d="M842.4,104.7c-0.3,0.1-0.8,0.2-1.2,0.2c-1.3,0-2-0.5-2-2.1v-5.6h-1.4v-1.2h1.4v-1.8l1.4-0.4v2.2h1.8v1.2
		h-1.8v5.1c0,1,0.3,1.4,0.9,1.4c0.4,0,0.6-0.1,0.9-0.2V104.7z"/>
</g>
<g>
	<path fill="#333333" d="M973.4,94.5c-0.5-0.3-1.2-0.5-1.9-0.5c-1.1,0-1.7,0.7-1.7,1.7c0,0.7,0.3,1.2,1.9,2.1c1.7,1,2.3,2,2.3,3.2
		c0,1.8-1.1,3.2-3.2,3.2c-0.9,0-1.7-0.2-2.3-0.5v-1.5c0.6,0.4,1.5,0.7,2.1,0.7c1.3,0,2-0.8,2-1.8c0-0.9-0.2-1.4-1.7-2.3
		c-2-1.2-2.5-1.9-2.5-3.3c0-1.8,1.4-2.8,3.1-2.8c0.7,0,1.5,0.2,2,0.4V94.5z"/>
	<path fill="#333333" d="M975.5,97.4c0-0.5,0-1-0.1-1.5h1.3l0,1.2h0c0.4-0.6,1-1.3,2.1-1.3c1.7,0,2.8,1.4,2.8,4.2
		c0,2.8-1.1,4.2-2.8,4.2c-0.9,0-1.5-0.4-2.1-1.2h0v4.6h-1.3V97.4z M978.7,103.1c1.2,0,1.8-1.1,1.8-3.1s-0.6-3.1-1.8-3.1
		c-1.2,0-1.8,1.1-1.8,3.1S977.4,103.1,978.7,103.1z"/>
	<path fill="#333333" d="M984.4,100.4c0,1.9,0.7,2.8,2.2,2.8c0.7,0,1.4-0.3,1.9-0.7l0.1,1.2c-0.6,0.3-1.5,0.5-2.3,0.5
		c-2.2,0-3.3-1.6-3.3-4.2s1.1-4.2,3.2-4.2c1.8,0,2.9,1.5,2.9,3.9v0.7H984.4z M987.6,99.3c0-1.7-0.5-2.5-1.6-2.5
		c-0.9,0-1.6,0.6-1.7,2.5H987.6z"/>
	<path fill="#333333" d="M995.3,97.3c-0.5-0.3-0.9-0.4-1.6-0.4c-1.3,0-2.2,0.9-2.2,3.1c0,1.9,0.9,3,2.2,3c0.6,0,1.2-0.2,1.6-0.4
		l0.1,1.2c-0.4,0.2-1.1,0.4-1.7,0.4c-2.4,0-3.6-1.8-3.6-4.1c0-2.6,1.4-4.3,3.6-4.3c0.6,0,1.2,0.1,1.6,0.3L995.3,97.3z"/>
	<path fill="#333333" d="M998.2,92.5v1.6h-1.5v-1.6H998.2z M996.8,95.9h1.3v8.2h-1.3V95.9z"/>
	<path fill="#333333" d="M1000.6,96.4c0.7-0.4,1.5-0.7,2.3-0.7c1.2,0,1.9,0.5,2.2,0.8c0.4,0.4,0.7,0.8,0.7,2v4.3c0,0.5,0,1,0.1,1.2
		h-1.2l-0.1-1.1h0c-0.4,0.6-1,1.2-2.3,1.2c-1.3,0-2.4-0.8-2.4-2.4c0-1.6,1-2.8,3.8-2.8h0.8v-0.4c0-0.6,0-1-0.3-1.3
		c-0.3-0.4-0.8-0.5-1.4-0.5c-0.8,0-1.6,0.3-2.1,0.8L1000.6,96.4z M1004.5,100c-0.2,0-0.6,0-0.9,0c-1.6,0-2.3,0.8-2.3,1.7
		c0,0.9,0.4,1.4,1.4,1.4c1.2,0,1.9-0.9,1.9-2.1V100z"/>
	<path fill="#333333" d="M1007.8,92h1.3v12h-1.3V92z"/>
	<path fill="#333333" d="M1014.8,104c-0.3,0.1-0.8,0.2-1.1,0.2c-1.2,0-1.9-0.5-1.9-1.9V97h-1.3v-1.1h1.3v-1.7l1.3-0.4v2.1h1.7V97
		h-1.7v4.8c0,0.9,0.2,1.3,0.8,1.3c0.3,0,0.6-0.1,0.8-0.2V104z"/>
	<path fill="#333333" d="M1018.5,105.7c-0.4,1.4-1,1.9-2,1.9c-0.3,0-0.7,0-0.9-0.1l0.1-1.2c0.2,0.1,0.4,0.2,0.7,0.2
		c0.4,0,0.7-0.2,0.9-1l0.3-1.2l-2.6-8.3h1.4l1.8,6.7h0l1.7-6.7h1.3L1018.5,105.7z"/>
	<path fill="#333333" d="M1031.2,94.5c-0.5-0.3-1.2-0.5-1.9-0.5c-1.1,0-1.7,0.7-1.7,1.7c0,0.7,0.3,1.2,1.9,2.1c1.7,1,2.3,2,2.3,3.2
		c0,1.8-1.1,3.2-3.2,3.2c-0.9,0-1.7-0.2-2.3-0.5v-1.5c0.6,0.4,1.5,0.7,2.1,0.7c1.3,0,2-0.8,2-1.8c0-0.9-0.2-1.4-1.7-2.3
		c-2-1.2-2.5-1.9-2.5-3.3c0-1.8,1.4-2.8,3.1-2.8c0.7,0,1.5,0.2,2,0.4V94.5z"/>
	<path fill="#333333" d="M1037,104c-0.3,0.1-0.8,0.2-1.1,0.2c-1.2,0-1.9-0.5-1.9-1.9V97h-1.3v-1.1h1.3v-1.7l1.3-0.4v2.1h1.7V97h-1.7
		v4.8c0,0.9,0.2,1.3,0.8,1.3c0.3,0,0.6-0.1,0.8-0.2V104z"/>
	<path fill="#333333" d="M1038.1,97.6c0-0.6,0-1.2-0.1-1.8h1.3l0,1.3h0c0.4-1,1.1-1.4,2.3-1.4v1.3c-0.2,0-0.3,0-0.5,0
		c-1,0-1.8,0.9-1.8,2.7v4.3h-1.3V97.6z"/>
	<path fill="#333333" d="M1043.2,96.4c0.7-0.4,1.5-0.7,2.3-0.7c1.2,0,1.9,0.5,2.2,0.8c0.4,0.4,0.7,0.8,0.7,2v4.3c0,0.5,0,1,0.1,1.2
		h-1.2l-0.1-1.1h0c-0.4,0.6-1,1.2-2.3,1.2c-1.3,0-2.4-0.8-2.4-2.4c0-1.6,1-2.8,3.8-2.8h0.8v-0.4c0-0.6,0-1-0.3-1.3
		c-0.3-0.4-0.8-0.5-1.4-0.5c-0.8,0-1.6,0.3-2.1,0.8L1043.2,96.4z M1047.1,100c-0.2,0-0.6,0-0.9,0c-1.6,0-2.3,0.8-2.3,1.7
		c0,0.9,0.4,1.4,1.4,1.4c1.2,0,1.9-0.9,1.9-2.1V100z"/>
	<path fill="#333333" d="M1053.9,104c-0.3,0.1-0.8,0.2-1.1,0.2c-1.2,0-1.9-0.5-1.9-1.9V97h-1.3v-1.1h1.3v-1.7l1.3-0.4v2.1h1.7V97
		h-1.7v4.8c0,0.9,0.2,1.3,0.8,1.3c0.3,0,0.6-0.1,0.8-0.2V104z"/>
	<path fill="#333333" d="M1056,100.4c0,1.9,0.7,2.8,2.2,2.8c0.7,0,1.4-0.3,1.9-0.7l0.1,1.2c-0.6,0.3-1.5,0.5-2.3,0.5
		c-2.2,0-3.3-1.6-3.3-4.2s1.1-4.2,3.2-4.2c1.8,0,2.9,1.5,2.9,3.9v0.7H1056z M1059.3,99.3c0-1.7-0.5-2.5-1.6-2.5
		c-0.9,0-1.6,0.6-1.7,2.5H1059.3z"/>
	<path fill="#333333" d="M1068,104.4c0,2.3-1.7,3.2-3.5,3.2c-0.7,0-1.8-0.3-2.4-0.5l0.1-1.4c0.6,0.4,1.5,0.7,2.2,0.7
		c1.6,0,2.3-1,2.3-2.4v-1.3h0c-0.5,0.9-1.2,1.4-2.1,1.4c-1.7,0-2.8-1.4-2.8-4.2c0-2.8,1.1-4.2,3-4.2c0.8,0,1.6,0.5,2,1.3h0l0-1.2
		h1.3c0,0.5-0.1,1-0.1,1.5V104.4z M1064.9,103.1c1.2,0,1.8-1.1,1.8-3.1s-0.6-3.1-1.8-3.1s-1.8,1.1-1.8,3.1
		S1063.6,103.1,1064.9,103.1z"/>
	<path fill="#333333" d="M1071.3,92.5v1.6h-1.5v-1.6H1071.3z M1069.9,95.9h1.3v8.2h-1.3V95.9z"/>
	<path fill="#333333" d="M1074.4,100.4c0,1.9,0.7,2.8,2.2,2.8c0.7,0,1.4-0.3,1.9-0.7l0.1,1.2c-0.6,0.3-1.5,0.5-2.3,0.5
		c-2.2,0-3.3-1.6-3.3-4.2s1.1-4.2,3.2-4.2c1.8,0,2.9,1.5,2.9,3.9v0.7H1074.4z M1077.6,99.3c0-1.7-0.5-2.5-1.6-2.5
		c-0.9,0-1.6,0.6-1.7,2.5H1077.6z"/>
	<path fill="#333333" d="M1080.1,102.5c0.6,0.4,1.2,0.6,1.9,0.6c1,0,1.6-0.5,1.6-1.2c0-0.6-0.3-0.9-1-1.3l-0.9-0.4
		c-1.2-0.5-1.6-1.1-1.6-2.1c0-1.3,1-2.4,2.6-2.4c0.7,0,1.3,0.1,1.7,0.3l-0.1,1.2c-0.4-0.2-1-0.4-1.6-0.4c-0.9,0-1.3,0.5-1.3,1.1
		c0,0.7,0.5,1,1.4,1.4l0.5,0.2c1,0.4,1.6,1.1,1.6,2.1c0,1.4-0.8,2.5-2.6,2.5c-0.8,0-1.6-0.2-2.2-0.5L1080.1,102.5z"/>
</g>
<g>
	<path fill="#333333" d="M965.9,169.8h1.9l2.5,7.8h0l2.5-7.8h1.8v9.8h-1.2v-8.4h0l-2.8,8.4h-0.9l-2.7-8.4h0v8.4h-1.2V169.8z"/>
	<path fill="#333333" d="M977.9,169.5v1.4h-1.3v-1.4H977.9z M976.6,172.5h1.2v7.1h-1.2V172.5z"/>
	<path fill="#333333" d="M979.6,174c0-0.5,0-1-0.1-1.5h1.1l0,1.1h0c0.4-0.8,1-1.2,1.8-1.2c1.2,0,2.1,0.7,2.1,2.3v5h-1.2V175
		c0-1.1-0.4-1.6-1.2-1.6c-0.9,0-1.5,0.6-1.5,1.9v4.3h-1.2V174z"/>
	<path fill="#333333" d="M988.9,172.4c1.9,0,2.9,1.4,2.9,3.7c0,2.2-1,3.7-2.9,3.7c-1.9,0-2.9-1.4-2.9-3.7
		C986,173.8,987,172.4,988.9,172.4z M988.9,178.7c1.1,0,1.6-0.9,1.6-2.7s-0.5-2.7-1.6-2.7c-1.1,0-1.6,0.9-1.6,2.7
		S987.8,178.7,988.9,178.7z"/>
	<path fill="#333333" d="M993.1,174c0-0.5,0-1-0.1-1.5h1.1l0,1.1h0c0.4-0.9,1-1.2,2-1.2v1.2c-0.1,0-0.3,0-0.4,0
		c-0.9,0-1.6,0.8-1.6,2.3v3.8h-1.2V174z"/>
	<path fill="#333333" d="M998.6,169.5v1.4h-1.3v-1.4H998.6z M997.4,172.5h1.2v7.1h-1.2V172.5z"/>
	<path fill="#333333" d="M1003.5,179.5c-0.3,0.1-0.7,0.2-1,0.2c-1.1,0-1.7-0.4-1.7-1.7v-4.6h-1.1v-1h1.1V171l1.2-0.3v1.8h1.5v1h-1.5
		v4.2c0,0.8,0.2,1.1,0.7,1.1c0.3,0,0.5-0.1,0.7-0.2V179.5z"/>
	<path fill="#333333" d="M1006.8,181.1c-0.4,1.2-0.9,1.7-1.8,1.7c-0.3,0-0.6,0-0.8-0.1l0.1-1.1c0.2,0.1,0.4,0.1,0.6,0.1
		c0.3,0,0.6-0.2,0.8-0.9l0.3-1.1l-2.3-7.3h1.2l1.6,5.8h0l1.5-5.8h1.2L1006.8,181.1z"/>
	<path fill="#333333" d="M1017.8,171.2c-0.5-0.3-1.1-0.4-1.7-0.4c-0.9,0-1.5,0.6-1.5,1.5c0,0.6,0.3,1,1.7,1.8c1.5,0.9,2,1.7,2,2.8
		c0,1.6-1,2.8-2.8,2.8c-0.8,0-1.5-0.2-2-0.4V178c0.6,0.3,1.3,0.6,1.9,0.6c1.1,0,1.7-0.7,1.7-1.5c0-0.8-0.2-1.2-1.5-2
		c-1.8-1.1-2.2-1.7-2.2-2.9c0-1.6,1.2-2.5,2.7-2.5c0.6,0,1.3,0.1,1.8,0.3V171.2z"/>
	<path fill="#333333" d="M1022.9,179.5c-0.3,0.1-0.7,0.2-1,0.2c-1.1,0-1.7-0.4-1.7-1.7v-4.6h-1.1v-1h1.1V171l1.2-0.3v1.8h1.5v1h-1.5
		v4.2c0,0.8,0.2,1.1,0.7,1.1c0.3,0,0.5-0.1,0.7-0.2V179.5z"/>
	<path fill="#333333" d="M1024.2,172.9c0.6-0.4,1.3-0.6,2-0.6c1.1,0,1.7,0.4,1.9,0.7c0.3,0.3,0.6,0.7,0.6,1.8v3.7
		c0,0.4,0,0.8,0.1,1.1h-1.1l-0.1-1h0c-0.3,0.5-0.9,1.1-2,1.1c-1.2,0-2.1-0.7-2.1-2.1c0-1.4,0.9-2.4,3.4-2.4h0.7v-0.3
		c0-0.5,0-0.8-0.3-1.1c-0.2-0.3-0.7-0.4-1.2-0.4c-0.7,0-1.4,0.3-1.8,0.7L1024.2,172.9z M1027.6,176.1c-0.2,0-0.5,0-0.8,0
		c-1.4,0-2,0.7-2,1.5c0,0.8,0.4,1.2,1.2,1.2c1,0,1.7-0.8,1.7-1.8V176.1z"/>
	<path fill="#333333" d="M1034,172.5h1.4l-2.8,3.2l3.1,4h-1.5l-2.6-3.6h0v3.6h-1.2v-10.5h1.2v6.2L1034,172.5z"/>
	<path fill="#333333" d="M1037,176.4c0,1.7,0.6,2.4,1.9,2.4c0.6,0,1.2-0.3,1.6-0.6l0.1,1.1c-0.6,0.3-1.3,0.4-2,0.4
		c-1.9,0-2.9-1.4-2.9-3.7c0-2.2,1-3.7,2.8-3.7c1.6,0,2.5,1.3,2.5,3.4v0.6H1037z M1039.9,175.5c0-1.5-0.5-2.2-1.4-2.2
		c-0.8,0-1.4,0.6-1.5,2.2H1039.9z"/>
	<path fill="#333333" d="M1042,178.2c0.5,0.3,1.1,0.5,1.7,0.5c0.9,0,1.4-0.5,1.4-1c0-0.5-0.3-0.8-0.9-1.1l-0.8-0.4
		c-1-0.5-1.4-0.9-1.4-1.8c0-1.2,0.9-2.1,2.3-2.1c0.6,0,1.1,0.1,1.5,0.3l-0.1,1c-0.4-0.2-0.9-0.3-1.4-0.3c-0.8,0-1.2,0.4-1.2,1
		c0,0.6,0.4,0.9,1.2,1.2l0.4,0.2c0.9,0.4,1.4,0.9,1.4,1.8c0,1.2-0.7,2.2-2.3,2.2c-0.7,0-1.4-0.2-1.9-0.4L1042,178.2z"/>
	<path fill="#333333" d="M1052.2,169.5v1.4h-1.3v-1.4H1052.2z M1051,172.5h1.2v7.1h-1.2V172.5z"/>
	<path fill="#333333" d="M1054,174c0-0.5,0-1-0.1-1.5h1.1l0,1.1h0c0.4-0.8,1-1.2,1.8-1.2c1.2,0,2.1,0.7,2.1,2.3v5h-1.2V175
		c0-1.1-0.4-1.6-1.2-1.6c-0.9,0-1.5,0.6-1.5,1.9v4.3h-1.2V174z"/>
	<path fill="#333333" d="M1067.2,169.8l3.2,9.8h-1.3l-0.8-2.5h-3.7l-0.8,2.5h-1.2l3.3-9.8H1067.2z M1068,176l-1.5-4.9h0l-1.5,4.9
		H1068z"/>
	<path fill="#333333" d="M1071,178.2c0.5,0.3,1.1,0.5,1.7,0.5c0.9,0,1.4-0.5,1.4-1c0-0.5-0.3-0.8-0.9-1.1l-0.8-0.4
		c-1-0.5-1.4-0.9-1.4-1.8c0-1.2,0.9-2.1,2.3-2.1c0.6,0,1.1,0.1,1.5,0.3l-0.1,1c-0.4-0.2-0.9-0.3-1.4-0.3c-0.8,0-1.2,0.4-1.2,1
		c0,0.6,0.4,0.9,1.2,1.2l0.4,0.2c0.9,0.4,1.4,0.9,1.4,1.8c0,1.2-0.7,2.2-2.3,2.2c-0.7,0-1.4-0.2-1.9-0.4L1071,178.2z"/>
	<path fill="#333333" d="M1076.2,178.2c0.5,0.3,1.1,0.5,1.7,0.5c0.9,0,1.4-0.5,1.4-1c0-0.5-0.3-0.8-0.9-1.1l-0.8-0.4
		c-1-0.5-1.4-0.9-1.4-1.8c0-1.2,0.9-2.1,2.3-2.1c0.6,0,1.1,0.1,1.5,0.3l-0.1,1c-0.4-0.2-0.9-0.3-1.4-0.3c-0.8,0-1.2,0.4-1.2,1
		c0,0.6,0.4,0.9,1.2,1.2l0.4,0.2c0.9,0.4,1.4,0.9,1.4,1.8c0,1.2-0.7,2.2-2.3,2.2c-0.7,0-1.4-0.2-1.9-0.4L1076.2,178.2z"/>
	<path fill="#333333" d="M1082.6,176.4c0,1.7,0.6,2.4,1.9,2.4c0.6,0,1.2-0.3,1.6-0.6l0.1,1.1c-0.6,0.3-1.3,0.4-2,0.4
		c-1.9,0-2.9-1.4-2.9-3.7c0-2.2,1-3.7,2.8-3.7c1.6,0,2.5,1.3,2.5,3.4v0.6H1082.6z M1085.5,175.5c0-1.5-0.5-2.2-1.4-2.2
		c-0.8,0-1.4,0.6-1.5,2.2H1085.5z"/>
	<path fill="#333333" d="M1091.1,179.5c-0.3,0.1-0.7,0.2-1,0.2c-1.1,0-1.7-0.4-1.7-1.7v-4.6h-1.1v-1h1.1V171l1.2-0.3v1.8h1.5v1h-1.5
		v4.2c0,0.8,0.2,1.1,0.7,1.1c0.3,0,0.5-0.1,0.7-0.2V179.5z"/>
	<path fill="#333333" d="M962.6,186.6h1.9l2.5,7.8h0l2.5-7.8h1.8v9.8h-1.2V188h0l-2.8,8.4h-0.9l-2.7-8.4h0v8.4h-1.2V186.6z"/>
	<path fill="#333333" d="M973.5,189.7c0.6-0.4,1.3-0.6,2-0.6c1.1,0,1.7,0.4,1.9,0.7c0.3,0.3,0.6,0.7,0.6,1.8v3.7
		c0,0.4,0,0.8,0.1,1.1h-1.1l-0.1-1h0c-0.3,0.5-0.9,1.1-2,1.1c-1.2,0-2.1-0.7-2.1-2.1c0-1.4,0.9-2.4,3.4-2.4h0.7v-0.3
		c0-0.5,0-0.8-0.3-1.1c-0.2-0.3-0.7-0.4-1.2-0.4c-0.7,0-1.4,0.3-1.8,0.7L973.5,189.7z M977,192.9c-0.2,0-0.5,0-0.8,0
		c-1.4,0-2,0.7-2,1.5c0,0.8,0.4,1.2,1.2,1.2c1,0,1.7-0.8,1.7-1.8V192.9z"/>
	<path fill="#333333" d="M979.7,190.8c0-0.5,0-1-0.1-1.5h1.1l0,1.1h0c0.4-0.8,1-1.2,1.8-1.2c1.2,0,2.1,0.7,2.1,2.3v5h-1.2v-4.6
		c0-1.1-0.4-1.6-1.2-1.6c-0.9,0-1.5,0.6-1.5,1.9v4.3h-1.2V190.8z"/>
	<path fill="#333333" d="M986.8,189.7c0.6-0.4,1.3-0.6,2-0.6c1.1,0,1.7,0.4,1.9,0.7c0.3,0.3,0.6,0.7,0.6,1.8v3.7
		c0,0.4,0,0.8,0.1,1.1h-1.1l-0.1-1h0c-0.3,0.5-0.9,1.1-2,1.1c-1.2,0-2.1-0.7-2.1-2.1c0-1.4,0.9-2.4,3.4-2.4h0.7v-0.3
		c0-0.5,0-0.8-0.3-1.1c-0.2-0.3-0.7-0.4-1.2-0.4c-0.7,0-1.4,0.3-1.8,0.7L986.8,189.7z M990.2,192.9c-0.2,0-0.5,0-0.8,0
		c-1.4,0-2,0.7-2,1.5c0,0.8,0.4,1.2,1.2,1.2c1,0,1.7-0.8,1.7-1.8V192.9z"/>
	<path fill="#333333" d="M998.1,196.7c0,2-1.5,2.8-3.1,2.8c-0.6,0-1.6-0.2-2.1-0.4l0.1-1.2c0.5,0.3,1.3,0.6,2,0.6c1.4,0,2-0.9,2-2.1
		v-1.1h0c-0.5,0.8-1.1,1.2-1.9,1.2c-1.5,0-2.5-1.2-2.5-3.7c0-2.5,1-3.7,2.6-3.7c0.7,0,1.4,0.4,1.8,1.1h0l0-1h1.1
		c0,0.4-0.1,0.9-0.1,1.3V196.7z M995.4,195.5c1.1,0,1.6-0.9,1.6-2.7s-0.5-2.7-1.6-2.7c-1.1,0-1.6,0.9-1.6,2.7
		S994.3,195.5,995.4,195.5z"/>
	<path fill="#333333" d="M1000.6,193.2c0,1.7,0.6,2.4,1.9,2.4c0.6,0,1.2-0.3,1.6-0.6l0.1,1.1c-0.6,0.3-1.3,0.4-2,0.4
		c-1.9,0-2.9-1.4-2.9-3.7c0-2.2,1-3.7,2.8-3.7c1.6,0,2.5,1.3,2.5,3.4v0.6H1000.6z M1003.4,192.3c0-1.5-0.5-2.2-1.4-2.2
		c-0.8,0-1.4,0.6-1.5,2.2H1003.4z"/>
	<path fill="#333333" d="M1005.9,190.8c0-0.5,0-1-0.1-1.5h1.1l0,1.1h0c0.4-0.8,1-1.2,1.8-1.2c0.8,0,1.3,0.4,1.7,1.1
		c0.4-0.7,0.9-1.1,1.7-1.1c1.2,0,2.1,0.7,2.1,2.3v5h-1.2v-4.9c0-0.9-0.4-1.3-1.1-1.3c-0.9,0-1.3,0.5-1.3,1.8v4.4h-1.2v-4.9
		c0-0.9-0.4-1.3-1.1-1.3c-0.9,0-1.3,0.5-1.3,1.8v4.4h-1.2V190.8z"/>
	<path fill="#333333" d="M1016.9,193.2c0,1.7,0.6,2.4,1.9,2.4c0.6,0,1.2-0.3,1.6-0.6l0.1,1.1c-0.6,0.3-1.3,0.4-2,0.4
		c-1.9,0-2.9-1.4-2.9-3.7c0-2.2,1-3.7,2.8-3.7c1.6,0,2.5,1.3,2.5,3.4v0.6H1016.9z M1019.8,192.3c0-1.5-0.5-2.2-1.4-2.2
		c-0.8,0-1.4,0.6-1.5,2.2H1019.8z"/>
	<path fill="#333333" d="M1022.2,190.8c0-0.5,0-1-0.1-1.5h1.1l0,1.1h0c0.4-0.8,1-1.2,1.8-1.2c1.2,0,2.1,0.7,2.1,2.3v5h-1.2v-4.6
		c0-1.1-0.4-1.6-1.2-1.6c-0.9,0-1.5,0.6-1.5,1.9v4.3h-1.2V190.8z"/>
	<path fill="#333333" d="M1032.1,196.3c-0.3,0.1-0.7,0.2-1,0.2c-1.1,0-1.7-0.4-1.7-1.7v-4.6h-1.1v-1h1.1v-1.5l1.2-0.4v1.8h1.5v1
		h-1.5v4.2c0,0.8,0.2,1.1,0.7,1.1c0.3,0,0.5-0.1,0.7-0.2V196.3z"/>
	<path fill="#333333" d="M1042.5,196.2c-0.6,0.2-1.2,0.3-1.8,0.3c-3.1,0-4.4-2.4-4.4-5c0-3.1,1.8-5,4.3-5c0.7,0,1.4,0.1,1.8,0.3v1.2
		c-0.5-0.3-1.1-0.5-1.8-0.5c-1.6,0-3.1,1.3-3.1,3.7c0,2.5,1,4.2,3.1,4.2c0.6,0,1.2-0.2,1.8-0.5V196.2z"/>
	<path fill="#333333" d="M1046.5,189.2c1.9,0,2.9,1.4,2.9,3.7c0,2.2-1,3.7-2.9,3.7c-1.9,0-2.9-1.4-2.9-3.7
		C1043.7,190.6,1044.6,189.2,1046.5,189.2z M1046.5,195.5c1.1,0,1.6-0.9,1.6-2.7s-0.5-2.7-1.6-2.7c-1.1,0-1.6,0.9-1.6,2.7
		S1045.4,195.5,1046.5,195.5z"/>
	<path fill="#333333" d="M1050.8,190.8c0-0.5,0-1-0.1-1.5h1.1l0,1.1h0c0.4-0.8,1-1.2,1.8-1.2c0.8,0,1.3,0.4,1.7,1.1
		c0.4-0.7,0.9-1.1,1.7-1.1c1.2,0,2.1,0.7,2.1,2.3v5h-1.2v-4.9c0-0.9-0.4-1.3-1.1-1.3c-0.9,0-1.3,0.5-1.3,1.8v4.4h-1.2v-4.9
		c0-0.9-0.4-1.3-1.1-1.3c-0.9,0-1.3,0.5-1.3,1.8v4.4h-1.2V190.8z"/>
	<path fill="#333333" d="M1060.8,190.6c0-0.4,0-0.9-0.1-1.3h1.1l0,1.1h0c0.3-0.6,0.8-1.1,1.9-1.1c1.5,0,2.5,1.2,2.5,3.7
		c0,2.5-1,3.7-2.5,3.7c-0.8,0-1.3-0.3-1.8-1.1h0v4h-1.2V190.6z M1063.5,195.5c1.1,0,1.6-0.9,1.6-2.7s-0.5-2.7-1.6-2.7
		c-1.1,0-1.6,0.9-1.6,2.7S1062.4,195.5,1063.5,195.5z"/>
	<path fill="#333333" d="M1067.9,189.7c0.6-0.4,1.3-0.6,2-0.6c1.1,0,1.7,0.4,1.9,0.7c0.3,0.3,0.6,0.7,0.6,1.8v3.7
		c0,0.4,0,0.8,0.1,1.1h-1.1l-0.1-1h0c-0.3,0.5-0.9,1.1-2,1.1c-1.2,0-2.1-0.7-2.1-2.1c0-1.4,0.9-2.4,3.4-2.4h0.7v-0.3
		c0-0.5,0-0.8-0.3-1.1c-0.2-0.3-0.7-0.4-1.2-0.4c-0.7,0-1.4,0.3-1.8,0.7L1067.9,189.7z M1071.3,192.9c-0.2,0-0.5,0-0.8,0
		c-1.4,0-2,0.7-2,1.5c0,0.8,0.4,1.2,1.2,1.2c1,0,1.7-0.8,1.7-1.8V192.9z"/>
	<path fill="#333333" d="M1074.1,190.8c0-0.5,0-1-0.1-1.5h1.1l0,1.1h0c0.4-0.8,1-1.2,1.8-1.2c1.2,0,2.1,0.7,2.1,2.3v5h-1.2v-4.6
		c0-1.1-0.4-1.6-1.2-1.6c-0.9,0-1.5,0.6-1.5,1.9v4.3h-1.2V190.8z"/>
	<path fill="#333333" d="M1082.2,186.3v1.4h-1.3v-1.4H1082.2z M1080.9,189.3h1.2v7.1h-1.2V189.3z"/>
	<path fill="#333333" d="M1084.8,193.2c0,1.7,0.6,2.4,1.9,2.4c0.6,0,1.2-0.3,1.6-0.6l0.1,1.1c-0.6,0.3-1.3,0.4-2,0.4
		c-1.9,0-2.9-1.4-2.9-3.7c0-2.2,1-3.7,2.8-3.7c1.6,0,2.5,1.3,2.5,3.4v0.6H1084.8z M1087.7,192.3c0-1.5-0.5-2.2-1.4-2.2
		c-0.8,0-1.4,0.6-1.5,2.2H1087.7z"/>
	<path fill="#333333" d="M1089.8,195c0.5,0.3,1.1,0.5,1.7,0.5c0.9,0,1.4-0.5,1.4-1c0-0.5-0.3-0.8-0.9-1.1l-0.8-0.4
		c-1-0.5-1.4-0.9-1.4-1.8c0-1.2,0.9-2.1,2.3-2.1c0.6,0,1.1,0.1,1.5,0.3l-0.1,1c-0.4-0.2-0.9-0.3-1.4-0.3c-0.8,0-1.2,0.4-1.2,1
		c0,0.6,0.4,0.9,1.2,1.2l0.4,0.2c0.9,0.3,1.4,0.9,1.4,1.8c0,1.2-0.7,2.2-2.3,2.2c-0.7,0-1.4-0.2-1.9-0.4L1089.8,195z"/>
	<path fill="#333333" d="M978,220.4h1.2v4.2h3.4v-4.2h1.2v9.8h-1.2v-4.5h-3.4v4.5H978V220.4z"/>
	<path fill="#333333" d="M986.7,227c0,1.7,0.6,2.4,1.9,2.4c0.6,0,1.2-0.3,1.6-0.6l0.1,1.1c-0.6,0.3-1.3,0.4-2,0.4
		c-1.9,0-2.9-1.4-2.9-3.7s1-3.7,2.8-3.7c1.6,0,2.5,1.3,2.5,3.4v0.6H986.7z M989.6,226.1c0-1.5-0.5-2.2-1.4-2.2
		c-0.8,0-1.4,0.6-1.5,2.2H989.6z"/>
	<path fill="#333333" d="M992.3,223.5c0.6-0.4,1.3-0.6,2-0.6c1.1,0,1.7,0.4,1.9,0.7c0.3,0.3,0.6,0.7,0.6,1.8v3.7
		c0,0.4,0,0.8,0.1,1.1h-1.1l-0.1-1h0c-0.3,0.5-0.9,1.1-2,1.1c-1.2,0-2.1-0.7-2.1-2.1c0-1.4,0.9-2.4,3.4-2.4h0.7v-0.3
		c0-0.5,0-0.8-0.3-1.1c-0.2-0.3-0.7-0.4-1.2-0.4c-0.7,0-1.4,0.3-1.8,0.7L992.3,223.5z M995.8,226.7c-0.2,0-0.5,0-0.8,0
		c-1.4,0-2,0.7-2,1.5c0,0.8,0.4,1.2,1.2,1.2c1,0,1.7-0.8,1.7-1.8V226.7z"/>
	<path fill="#333333" d="M998.7,219.7h1.2v10.5h-1.2V219.7z"/>
	<path fill="#333333" d="M1004.8,230.1c-0.3,0.1-0.7,0.2-1,0.2c-1.1,0-1.7-0.4-1.7-1.7V224h-1.1v-1h1.1v-1.5l1.2-0.3v1.8h1.5v1h-1.5
		v4.2c0,0.8,0.2,1.1,0.7,1.1c0.3,0,0.5-0.1,0.7-0.2V230.1z"/>
	<path fill="#333333" d="M1005.8,219.7h1.2v4.3h0c0.3-0.6,0.9-1.1,1.8-1.1c1.2,0,2.1,0.7,2.1,2.3v5h-1.2v-4.6c0-1.1-0.4-1.6-1.2-1.6
		c-0.9,0-1.5,0.6-1.5,1.9v4.3h-1.2V219.7z"/>
	<path fill="#333333" d="M1016.7,224.3c-0.4-0.2-0.8-0.3-1.4-0.3c-1.1,0-2,0.8-2,2.7c0,1.7,0.8,2.6,1.9,2.6c0.6,0,1-0.2,1.4-0.4
		l0.1,1.1c-0.4,0.2-1,0.3-1.5,0.3c-2.1,0-3.2-1.6-3.2-3.6c0-2.3,1.2-3.7,3.2-3.7c0.5,0,1,0.1,1.4,0.3L1016.7,224.3z"/>
	<path fill="#333333" d="M1018.3,223.5c0.6-0.4,1.3-0.6,2-0.6c1.1,0,1.7,0.4,1.9,0.7c0.3,0.3,0.6,0.7,0.6,1.8v3.7
		c0,0.4,0,0.8,0.1,1.1h-1.1l-0.1-1h0c-0.3,0.5-0.9,1.1-2,1.1c-1.2,0-2.1-0.7-2.1-2.1c0-1.4,0.9-2.4,3.4-2.4h0.7v-0.3
		c0-0.5,0-0.8-0.3-1.1c-0.2-0.3-0.7-0.4-1.2-0.4c-0.7,0-1.4,0.3-1.8,0.7L1018.3,223.5z M1021.7,226.7c-0.2,0-0.5,0-0.8,0
		c-1.4,0-2,0.7-2,1.5c0,0.8,0.4,1.2,1.2,1.2c1,0,1.7-0.8,1.7-1.8V226.7z"/>
	<path fill="#333333" d="M1024.5,224.6c0-0.5,0-1-0.1-1.5h1.1l0,1.1h0c0.4-0.9,1-1.2,2-1.2v1.2c-0.1,0-0.3,0-0.4,0
		c-0.9,0-1.6,0.8-1.6,2.3v3.8h-1.2V224.6z"/>
	<path fill="#333333" d="M1029.5,227c0,1.7,0.6,2.4,1.9,2.4c0.6,0,1.2-0.3,1.6-0.6l0.1,1.1c-0.6,0.3-1.3,0.4-2,0.4
		c-1.9,0-2.9-1.4-2.9-3.7s1-3.7,2.8-3.7c1.6,0,2.5,1.3,2.5,3.4v0.6H1029.5z M1032.4,226.1c0-1.5-0.5-2.2-1.4-2.2
		c-0.8,0-1.4,0.6-1.5,2.2H1032.4z"/>
	<path fill="#333333" d="M1039.6,226.1l-2.9-5.7h1.4l2.2,4.3l2.2-4.3h1.4l-2.9,5.7v4.1h-1.2V226.1z"/>
	<path fill="#333333" d="M1045.5,220.1v1.4h-1.3v-1.4H1045.5z M1044.3,223.1h1.2v7.1h-1.2V223.1z"/>
	<path fill="#333333" d="M1048.1,227c0,1.7,0.6,2.4,1.9,2.4c0.6,0,1.2-0.3,1.6-0.6l0.1,1.1c-0.6,0.3-1.3,0.4-2,0.4
		c-1.9,0-2.9-1.4-2.9-3.7s1-3.7,2.8-3.7c1.6,0,2.5,1.3,2.5,3.4v0.6H1048.1z M1051,226.1c0-1.5-0.5-2.2-1.4-2.2
		c-0.8,0-1.4,0.6-1.5,2.2H1051z"/>
	<path fill="#333333" d="M1053.6,219.7h1.2v10.5h-1.2V219.7z"/>
	<path fill="#333333" d="M1061.7,228.9c0,0.4,0,0.9,0.1,1.3h-1.1l0-1.1h0c-0.3,0.6-0.8,1.1-1.9,1.1c-1.5,0-2.5-1.2-2.5-3.7
		s1-3.7,2.5-3.7c0.8,0,1.3,0.3,1.8,1.1h0v-4.3h1.2V228.9z M1059,223.9c-1.1,0-1.6,0.9-1.6,2.7s0.5,2.7,1.6,2.7
		c1.1,0,1.6-0.9,1.6-2.7S1060.1,223.9,1059,223.9z"/>
	<path fill="#333333" d="M1064.7,220.1v1.4h-1.3v-1.4H1064.7z M1063.4,223.1h1.2v7.1h-1.2V223.1z"/>
	<path fill="#333333" d="M1066.4,224.6c0-0.5,0-1-0.1-1.5h1.1l0,1.1h0c0.4-0.8,1-1.2,1.8-1.2c1.2,0,2.1,0.7,2.1,2.3v5h-1.2v-4.6
		c0-1.1-0.4-1.6-1.2-1.6c-0.9,0-1.5,0.6-1.5,1.9v4.3h-1.2V224.6z"/>
	<path fill="#333333" d="M1078.3,230.5c0,2-1.5,2.8-3.1,2.8c-0.6,0-1.6-0.2-2.1-0.4l0.1-1.2c0.5,0.3,1.3,0.6,2,0.6
		c1.4,0,2-0.9,2-2.1v-1.1h0c-0.5,0.8-1.1,1.2-1.9,1.2c-1.5,0-2.5-1.2-2.5-3.7s1-3.7,2.6-3.7c0.7,0,1.4,0.4,1.8,1.1h0l0-1h1.1
		c0,0.4-0.1,0.9-0.1,1.3V230.5z M1075.6,229.3c1.1,0,1.6-0.9,1.6-2.7s-0.5-2.7-1.6-2.7c-1.1,0-1.6,0.9-1.6,2.7
		S1074.5,229.3,1075.6,229.3z"/>
	<path fill="#333333" d="M987.7,254.2h2.5c1.9,0,2.7,1,2.7,2.5c0,1.1-0.6,1.9-1.6,2.2v0c1.1,0.2,1.8,1,1.8,2.4
		c0,1.4-0.9,2.7-3.1,2.7h-2.4V254.2z M989,258.5h0.7c1.4,0,2-0.6,2-1.7c0-0.8-0.5-1.5-1.8-1.5H989V258.5z M989,263h1
		c1.3,0,1.9-0.8,1.9-1.8c0-1-0.6-1.8-1.8-1.8H989V263z"/>
	<path fill="#333333" d="M994.8,258.4c0-0.5,0-1-0.1-1.5h1.1l0,1.1h0c0.4-0.9,1-1.2,2-1.2v1.2c-0.1,0-0.3,0-0.4,0
		c-0.9,0-1.6,0.8-1.6,2.3v3.8h-1.2V258.4z"/>
	<path fill="#333333" d="M999.2,257.3c0.6-0.4,1.3-0.6,2-0.6c1.1,0,1.7,0.4,1.9,0.7c0.3,0.3,0.6,0.7,0.6,1.8v3.7
		c0,0.4,0,0.8,0.1,1.1h-1.1l-0.1-1h0c-0.3,0.5-0.9,1.1-2,1.1c-1.2,0-2.1-0.7-2.1-2.1c0-1.4,0.9-2.4,3.4-2.4h0.7v-0.3
		c0-0.5,0-0.8-0.3-1.1c-0.2-0.3-0.7-0.4-1.2-0.4c-0.7,0-1.4,0.3-1.8,0.7L999.2,257.3z M1002.6,260.5c-0.2,0-0.5,0-0.8,0
		c-1.4,0-2,0.7-2,1.5c0,0.8,0.4,1.2,1.2,1.2c1,0,1.7-0.8,1.7-1.8V260.5z"/>
	<path fill="#333333" d="M1005.4,258.4c0-0.5,0-1-0.1-1.5h1.1l0,1.1h0c0.4-0.8,1-1.2,1.8-1.2c1.2,0,2.1,0.7,2.1,2.3v5h-1.2v-4.6
		c0-1.1-0.4-1.6-1.2-1.6c-0.9,0-1.5,0.6-1.5,1.9v4.3h-1.2V258.4z"/>
	<path fill="#333333" d="M1017.3,262.7c0,0.4,0,0.9,0.1,1.3h-1.1l0-1.1h0c-0.3,0.6-0.8,1.1-1.9,1.1c-1.5,0-2.5-1.2-2.5-3.7
		s1-3.7,2.5-3.7c0.8,0,1.3,0.3,1.8,1.1h0v-4.3h1.2V262.7z M1014.5,257.7c-1.1,0-1.6,0.9-1.6,2.7s0.5,2.7,1.6,2.7
		c1.1,0,1.6-0.9,1.6-2.7S1015.6,257.7,1014.5,257.7z"/>
	<path fill="#333333" d="M1022.5,254.2h2.5c1,0,1.6,0.3,2.1,0.7c0.5,0.5,0.7,1.1,0.7,1.9c0,1-0.5,2-1.9,2.3v0c0.6,0.1,0.9,0.4,1.1,1
		l1.4,3.9h-1.3l-1.1-3.3c-0.3-0.8-0.6-1.1-1.6-1.1h-0.6v4.4h-1.2V254.2z M1023.7,258.6h1c1.3,0,1.8-0.9,1.8-1.7
		c0-1.1-0.7-1.6-1.8-1.6h-1V258.6z"/>
	<path fill="#333333" d="M1032,256.8c1.9,0,2.9,1.4,2.9,3.7s-1,3.7-2.9,3.7c-1.9,0-2.9-1.4-2.9-3.7S1030.1,256.8,1032,256.8z
		 M1032,263.1c1.1,0,1.6-0.9,1.6-2.7s-0.5-2.7-1.6-2.7c-1.1,0-1.6,0.9-1.6,2.7S1030.9,263.1,1032,263.1z"/>
	<path fill="#333333" d="M1038.5,265.5c-0.4,1.2-0.9,1.7-1.8,1.7c-0.3,0-0.6,0-0.8-0.1l0.1-1.1c0.2,0.1,0.4,0.1,0.6,0.1
		c0.3,0,0.6-0.2,0.8-0.9l0.3-1.1l-2.3-7.3h1.2l1.6,5.8h0l1.5-5.8h1.2L1038.5,265.5z"/>
	<path fill="#333333" d="M1042.2,257.3c0.6-0.4,1.3-0.6,2-0.6c1.1,0,1.7,0.4,1.9,0.7c0.3,0.3,0.6,0.7,0.6,1.8v3.7
		c0,0.4,0,0.8,0.1,1.1h-1.1l-0.1-1h0c-0.3,0.5-0.9,1.1-2,1.1c-1.2,0-2.1-0.7-2.1-2.1c0-1.4,0.9-2.4,3.4-2.4h0.7v-0.3
		c0-0.5,0-0.8-0.3-1.1c-0.2-0.3-0.7-0.4-1.2-0.4c-0.7,0-1.4,0.3-1.8,0.7L1042.2,257.3z M1045.7,260.5c-0.2,0-0.5,0-0.8,0
		c-1.4,0-2,0.7-2,1.5c0,0.8,0.4,1.2,1.2,1.2c1,0,1.7-0.8,1.7-1.8V260.5z"/>
	<path fill="#333333" d="M1048.6,253.5h1.2V264h-1.2V253.5z"/>
	<path fill="#333333" d="M1054.7,263.9c-0.3,0.1-0.7,0.2-1,0.2c-1.1,0-1.7-0.4-1.7-1.7v-4.6h-1.1v-1h1.1v-1.5l1.2-0.4v1.8h1.5v1
		h-1.5v4.2c0,0.8,0.2,1.1,0.7,1.1c0.3,0,0.5-0.1,0.7-0.2V263.9z"/>
	<path fill="#333333" d="M1057,253.9v1.4h-1.3v-1.4H1057z M1055.8,256.9h1.2v7.1h-1.2V256.9z"/>
	<path fill="#333333" d="M1059.7,260.8c0,1.7,0.6,2.4,1.9,2.4c0.6,0,1.2-0.3,1.6-0.6l0.1,1.1c-0.6,0.3-1.3,0.4-2,0.4
		c-1.9,0-2.9-1.4-2.9-3.7s1-3.7,2.8-3.7c1.6,0,2.5,1.3,2.5,3.4v0.6H1059.7z M1062.5,259.9c0-1.5-0.5-2.2-1.4-2.2
		c-0.8,0-1.4,0.6-1.5,2.2H1062.5z"/>
	<path fill="#333333" d="M1064.7,262.6c0.5,0.3,1.1,0.5,1.7,0.5c0.9,0,1.4-0.5,1.4-1c0-0.5-0.3-0.8-0.9-1.1l-0.8-0.4
		c-1-0.5-1.4-0.9-1.4-1.8c0-1.2,0.9-2.1,2.3-2.1c0.6,0,1.1,0.1,1.5,0.3l-0.1,1c-0.4-0.2-0.9-0.3-1.4-0.3c-0.8,0-1.2,0.4-1.2,1
		c0,0.6,0.4,0.9,1.2,1.2l0.4,0.2c0.9,0.3,1.4,0.9,1.4,1.8c0,1.2-0.7,2.2-2.3,2.2c-0.7,0-1.4-0.2-1.9-0.4L1064.7,262.6z"/>
	<path fill="#333333" d="M961.4,288h1.2v9.8h-1.2V288z"/>
	<path fill="#333333" d="M967.7,297.7c-0.3,0.1-0.7,0.2-1,0.2c-1.1,0-1.7-0.4-1.7-1.7v-4.6H964v-1h1.1v-1.5l1.2-0.4v1.8h1.5v1h-1.5
		v4.2c0,0.8,0.2,1.1,0.7,1.1c0.3,0,0.5-0.1,0.7-0.2V297.7z"/>
	<path fill="#333333" d="M969,291.1c0.6-0.4,1.3-0.6,2-0.6c1.1,0,1.7,0.4,1.9,0.7c0.3,0.3,0.6,0.7,0.6,1.8v3.7c0,0.4,0,0.8,0.1,1.1
		h-1.1l-0.1-1h0c-0.3,0.5-0.9,1.1-2,1.1c-1.2,0-2.1-0.7-2.1-2.1c0-1.4,0.9-2.4,3.4-2.4h0.7v-0.3c0-0.5,0-0.8-0.3-1.1
		c-0.2-0.3-0.7-0.4-1.2-0.4c-0.7,0-1.4,0.3-1.8,0.7L969,291.1z M972.4,294.3c-0.2,0-0.5,0-0.8,0c-1.4,0-2,0.7-2,1.5
		c0,0.8,0.4,1.2,1.2,1.2c1,0,1.7-0.8,1.7-1.8V294.3z"/>
	<path fill="#333333" d="M975.3,287.3h1.2v10.5h-1.2V287.3z"/>
	<path fill="#333333" d="M979.7,287.7v1.4h-1.3v-1.4H979.7z M978.4,290.7h1.2v7.1h-1.2V290.7z"/>
	<path fill="#333333" d="M981.7,291.1c0.6-0.4,1.3-0.6,2-0.6c1.1,0,1.7,0.4,1.9,0.7c0.3,0.3,0.6,0.7,0.6,1.8v3.7
		c0,0.4,0,0.8,0.1,1.1h-1.1l-0.1-1h0c-0.3,0.5-0.9,1.1-2,1.1c-1.2,0-2.1-0.7-2.1-2.1c0-1.4,0.9-2.4,3.4-2.4h0.7v-0.3
		c0-0.5,0-0.8-0.3-1.1c-0.2-0.3-0.7-0.4-1.2-0.4c-0.7,0-1.4,0.3-1.8,0.7L981.7,291.1z M985.1,294.3c-0.2,0-0.5,0-0.8,0
		c-1.4,0-2,0.7-2,1.5c0,0.8,0.4,1.2,1.2,1.2c1,0,1.7-0.8,1.7-1.8V294.3z"/>
	<path fill="#333333" d="M987.9,292.2c0-0.5,0-1-0.1-1.5h1.1l0,1.1h0c0.4-0.8,1-1.2,1.8-1.2c1.2,0,2.1,0.7,2.1,2.3v5h-1.2v-4.6
		c0-1.1-0.4-1.6-1.2-1.6c-0.9,0-1.5,0.6-1.5,1.9v4.3h-1.2V292.2z"/>
	<path fill="#333333" d="M998.1,288h2.1c1.3,0,2,0.3,2.6,0.7c0.9,0.6,1.8,1.8,1.8,4c0,2.8-1.3,5-5,5h-1.5V288z M999.3,296.7h0.7
		c2.2,0,3.3-1.5,3.3-4c0-2-0.9-3.7-3.3-3.7h-0.7V296.7z"/>
	<path fill="#333333" d="M1007.4,287.7v1.4h-1.3v-1.4H1007.4z M1006.2,290.7h1.2v7.1h-1.2V290.7z"/>
	<path fill="#333333" d="M1009.2,292.2c0-0.5,0-1-0.1-1.5h1.1l0,1.1h0c0.4-0.9,1-1.2,2-1.2v1.2c-0.1,0-0.3,0-0.4,0
		c-0.9,0-1.6,0.8-1.6,2.3v3.8h-1.2V292.2z"/>
	<path fill="#333333" d="M1014.2,294.6c0,1.7,0.6,2.4,1.9,2.4c0.6,0,1.2-0.3,1.6-0.6l0.1,1.1c-0.6,0.3-1.3,0.4-2,0.4
		c-1.9,0-2.9-1.4-2.9-3.7c0-2.2,1-3.7,2.8-3.7c1.6,0,2.5,1.3,2.5,3.4v0.6H1014.2z M1017,293.7c0-1.5-0.5-2.2-1.4-2.2
		c-0.8,0-1.4,0.6-1.5,2.2H1017z"/>
	<path fill="#333333" d="M1023.7,291.9c-0.4-0.2-0.8-0.3-1.4-0.3c-1.1,0-2,0.8-2,2.7c0,1.7,0.8,2.6,1.9,2.6c0.6,0,1-0.2,1.4-0.4
		l0.1,1.1c-0.4,0.2-1,0.3-1.5,0.3c-2.1,0-3.2-1.6-3.2-3.6c0-2.3,1.2-3.7,3.2-3.7c0.5,0,1,0.1,1.4,0.3L1023.7,291.9z"/>
	<path fill="#333333" d="M1028.1,297.7c-0.3,0.1-0.7,0.2-1,0.2c-1.1,0-1.7-0.4-1.7-1.7v-4.6h-1.1v-1h1.1v-1.5l1.2-0.4v1.8h1.5v1
		h-1.5v4.2c0,0.8,0.2,1.1,0.7,1.1c0.3,0,0.5-0.1,0.7-0.2V297.7z"/>
	<path fill="#333333" d="M1032.7,288h1.2v9.8h-1.2V288z"/>
	<path fill="#333333" d="M1035.9,292.2c0-0.5,0-1-0.1-1.5h1.1l0,1.1h0c0.4-0.8,1-1.2,1.8-1.2c1.2,0,2.1,0.7,2.1,2.3v5h-1.2v-4.6
		c0-1.1-0.4-1.6-1.2-1.6c-0.9,0-1.5,0.6-1.5,1.9v4.3h-1.2V292.2z"/>
	<path fill="#333333" d="M1041.9,290.7h1.3l1.6,6h0l1.6-6h1.2l-2.1,7.1h-1.4L1041.9,290.7z"/>
	<path fill="#333333" d="M1049.5,294.6c0,1.7,0.6,2.4,1.9,2.4c0.6,0,1.2-0.3,1.6-0.6l0.1,1.1c-0.6,0.3-1.3,0.4-2,0.4
		c-1.9,0-2.9-1.4-2.9-3.7c0-2.2,1-3.7,2.8-3.7c1.6,0,2.5,1.3,2.5,3.4v0.6H1049.5z M1052.3,293.7c0-1.5-0.5-2.2-1.4-2.2
		c-0.8,0-1.4,0.6-1.5,2.2H1052.3z"/>
	<path fill="#333333" d="M1054.5,296.4c0.5,0.3,1.1,0.5,1.7,0.5c0.9,0,1.4-0.5,1.4-1c0-0.5-0.3-0.8-0.9-1.1l-0.8-0.4
		c-1-0.5-1.4-0.9-1.4-1.8c0-1.2,0.9-2.1,2.3-2.1c0.6,0,1.1,0.1,1.5,0.3l-0.1,1c-0.4-0.2-0.9-0.3-1.4-0.3c-0.8,0-1.2,0.4-1.2,1
		c0,0.6,0.4,0.9,1.2,1.2l0.4,0.2c0.9,0.4,1.4,0.9,1.4,1.8c0,1.2-0.7,2.2-2.3,2.2c-0.7,0-1.4-0.2-1.9-0.4L1054.5,296.4z"/>
	<path fill="#333333" d="M1063.1,297.7c-0.3,0.1-0.7,0.2-1,0.2c-1.1,0-1.7-0.4-1.7-1.7v-4.6h-1.1v-1h1.1v-1.5l1.2-0.4v1.8h1.5v1
		h-1.5v4.2c0,0.8,0.2,1.1,0.7,1.1c0.3,0,0.5-0.1,0.7-0.2V297.7z"/>
	<path fill="#333333" d="M1064.1,292.2c0-0.5,0-1-0.1-1.5h1.1l0,1.1h0c0.4-0.8,1-1.2,1.8-1.2c0.8,0,1.3,0.4,1.7,1.1
		c0.4-0.7,0.9-1.1,1.7-1.1c1.2,0,2.1,0.7,2.1,2.3v5h-1.2v-4.9c0-0.9-0.4-1.3-1.1-1.3c-0.9,0-1.3,0.5-1.3,1.8v4.4h-1.2v-4.9
		c0-0.9-0.4-1.3-1.1-1.3c-0.9,0-1.3,0.5-1.3,1.8v4.4h-1.2V292.2z"/>
	<path fill="#333333" d="M1075.1,294.6c0,1.7,0.6,2.4,1.9,2.4c0.6,0,1.2-0.3,1.6-0.6l0.1,1.1c-0.6,0.3-1.3,0.4-2,0.4
		c-1.9,0-2.9-1.4-2.9-3.7c0-2.2,1-3.7,2.8-3.7c1.6,0,2.5,1.3,2.5,3.4v0.6H1075.1z M1078,293.7c0-1.5-0.5-2.2-1.4-2.2
		c-0.8,0-1.4,0.6-1.5,2.2H1078z"/>
	<path fill="#333333" d="M1080.4,292.2c0-0.5,0-1-0.1-1.5h1.1l0,1.1h0c0.4-0.8,1-1.2,1.8-1.2c1.2,0,2.1,0.7,2.1,2.3v5h-1.2v-4.6
		c0-1.1-0.4-1.6-1.2-1.6c-0.9,0-1.5,0.6-1.5,1.9v4.3h-1.2V292.2z"/>
	<path fill="#333333" d="M1090.3,297.7c-0.3,0.1-0.7,0.2-1,0.2c-1.1,0-1.7-0.4-1.7-1.7v-4.6h-1.1v-1h1.1v-1.5l1.2-0.4v1.8h1.5v1
		h-1.5v4.2c0,0.8,0.2,1.1,0.7,1.1c0.3,0,0.5-0.1,0.7-0.2V297.7z"/>
	<path fill="#333333" d="M1091,296.4c0.5,0.3,1.1,0.5,1.7,0.5c0.9,0,1.4-0.5,1.4-1c0-0.5-0.3-0.8-0.9-1.1l-0.8-0.4
		c-1-0.5-1.4-0.9-1.4-1.8c0-1.2,0.9-2.1,2.3-2.1c0.6,0,1.1,0.1,1.5,0.3l-0.1,1c-0.4-0.2-0.9-0.3-1.4-0.3c-0.8,0-1.2,0.4-1.2,1
		c0,0.6,0.4,0.9,1.2,1.2l0.4,0.2c0.9,0.4,1.4,0.9,1.4,1.8c0,1.2-0.7,2.2-2.3,2.2c-0.7,0-1.4-0.2-1.9-0.4L1091,296.4z"/>
</g>
<rect id="Rectangle_1350_copy_3_3_" x="452.3" y="0" fill="#677179" width="687.7" height="55"/>
<g enable-background="new    ">
	<path fill="#FFFFFF" d="M734.7,20.5h3.3c4,0,6.1,2.2,6.1,6.4c0,4.3-2.6,6.4-6.1,6.4h-3.3V20.5z M737.1,31.5h0.8
		c2.6,0,3.8-1.8,3.8-4.6c0-2.8-1.2-4.6-3.8-4.6h-0.8V31.5z"/>
	<path fill="#FFFFFF" d="M746.3,19.8h2.4v2.2h-2.4V19.8z M746.3,23.9h2.3v9.5h-2.3V23.9z"/>
	<path fill="#FFFFFF" d="M750.9,25.4c0-0.6,0-1.1-0.1-1.6h2.1c0,0.6,0.1,1.2,0.1,1.7h0c0.3-0.7,1-1.9,2.4-1.9c0.1,0,0.3,0,0.4,0.1
		v2.1c-0.2-0.1-0.4-0.1-0.6-0.1c-0.9,0-2,0.6-2,2.3v5.2h-2.3V25.4z"/>
	<path fill="#FFFFFF" d="M764.1,32.9c-0.5,0.2-1.5,0.6-2.8,0.6c-3,0-4.4-2.2-4.4-4.7c0-2.8,1.5-5,3.9-5c2,0,3.8,1.2,3.8,5.1v0.4
		h-5.5c0,1.6,0.6,2.6,2.4,2.6c1.4,0,2.1-0.4,2.5-0.7L764.1,32.9z M762.4,27.8c0-1.7-0.6-2.5-1.6-2.5c-1.2,0-1.7,1.3-1.7,2.5H762.4z"
		/>
	<path fill="#FFFFFF" d="M772.8,33.1c-0.5,0.2-1.3,0.4-2.2,0.4c-3.1,0-4.4-2.2-4.4-4.9c0-2.7,1.4-4.9,4.6-4.9c0.7,0,1.6,0.2,2,0.4
		l-0.1,1.8c-0.4-0.2-1-0.5-1.6-0.5c-1.7,0-2.5,1.2-2.5,3.2c0,1.8,0.8,3.1,2.6,3.1c0.6,0,1.3-0.3,1.6-0.5L772.8,33.1z"/>
	<path fill="#FFFFFF" d="M775,21.9l2.3-0.7v2.6h1.9v1.7h-1.9v4.9c0,1,0.4,1.3,1,1.3c0.4,0,0.7-0.1,0.9-0.2v1.6
		c-0.3,0.2-0.8,0.3-1.5,0.3c-1.7,0-2.6-0.8-2.6-2.8v-5.2h-1.5v-1.7h1.5V21.9z"/>
	<path fill="#FFFFFF" d="M785.7,20.5h2.4v12.8h-2.4V20.5z"/>
	<path fill="#FFFFFF" d="M790.5,25.4c0-0.6,0-1.1-0.1-1.6h2.1c0,0.5,0.1,1,0.1,1.5h0c0.3-0.6,1-1.6,2.5-1.6c2.1,0,2.8,1.6,2.8,3.5
		v6.1h-2.3v-5.7c0-1.5-0.4-2.1-1.3-2.1c-1.2,0-1.6,1-1.6,2.2v5.5h-2.3V25.4z"/>
	<path fill="#FFFFFF" d="M799.2,23.9h2.4l1.9,7.3h0l1.9-7.3h2.2l-2.9,9.5h-2.7L799.2,23.9z"/>
	<path fill="#FFFFFF" d="M815.8,32.9c-0.5,0.2-1.5,0.6-2.8,0.6c-3,0-4.4-2.2-4.4-4.7c0-2.8,1.5-5,3.9-5c2,0,3.8,1.2,3.8,5.1v0.4
		h-5.5c0,1.6,0.6,2.6,2.4,2.6c1.4,0,2.1-0.4,2.5-0.7L815.8,32.9z M814.1,27.8c0-1.7-0.6-2.5-1.6-2.5c-1.2,0-1.7,1.3-1.7,2.5H814.1z"
		/>
	<path fill="#FFFFFF" d="M817.8,31.1c0.4,0.1,1.3,0.6,2.4,0.6c0.8,0,1.5-0.2,1.5-0.9c0-0.4-0.2-0.7-1-1.2l-0.9-0.6
		c-1-0.6-2-1.2-2-2.7c0-1.3,1.3-2.7,3.3-2.7c1.2,0,2.1,0.3,2.4,0.4l-0.1,1.8c-0.6-0.2-1.2-0.4-2-0.4c-0.9,0-1.3,0.3-1.3,0.9
		c0,0.5,0.4,0.8,1.1,1.2l1.1,0.7c1.2,0.8,1.8,1.3,1.8,2.4c0,1.7-1.5,2.8-3.5,2.8c-1.2,0-2.1-0.3-2.6-0.5L817.8,31.1z"/>
	<path fill="#FFFFFF" d="M826.4,21.9l2.3-0.7v2.6h1.9v1.7h-1.9v4.9c0,1,0.4,1.3,1,1.3c0.4,0,0.7-0.1,0.9-0.2v1.6
		c-0.3,0.2-0.8,0.3-1.5,0.3c-1.7,0-2.6-0.8-2.6-2.8v-5.2h-1.5v-1.7h1.5V21.9z"/>
	<path fill="#FFFFFF" d="M831.9,25.4c0-0.7,0-1.2-0.1-1.5h2.3c0,0.5,0.1,1,0.1,1.5h0c0.3-0.7,1.1-1.6,2.4-1.6c1.6,0,2.1,1,2.4,1.5
		c0.5-0.7,1.1-1.5,2.5-1.5c2.1,0,2.7,1.5,2.7,3.8v5.8H842v-6c0-1.2-0.4-1.8-1.2-1.8c-1,0-1.5,1-1.5,2v5.7H837v-6
		c0-1.2-0.4-1.8-1.2-1.8c-1,0-1.5,1-1.5,2v5.7h-2.3V25.4z"/>
	<path fill="#FFFFFF" d="M853.2,32.9c-0.5,0.2-1.5,0.6-2.8,0.6c-3,0-4.4-2.2-4.4-4.7c0-2.8,1.5-5,3.9-5c2,0,3.8,1.2,3.8,5.1v0.4
		h-5.5c0,1.6,0.6,2.6,2.4,2.6c1.4,0,2.1-0.4,2.5-0.7L853.2,32.9z M851.5,27.8c0-1.7-0.6-2.5-1.6-2.5c-1.2,0-1.7,1.3-1.7,2.5H851.5z"
		/>
	<path fill="#FFFFFF" d="M855.5,25.4c0-0.6,0-1.1-0.1-1.6h2.1c0,0.5,0.1,1,0.1,1.5h0c0.3-0.6,1-1.6,2.5-1.6c2.1,0,2.8,1.6,2.8,3.5
		v6.1h-2.3v-5.7c0-1.5-0.4-2.1-1.3-2.1c-1.2,0-1.6,1-1.6,2.2v5.5h-2.3V25.4z"/>
	<path fill="#FFFFFF" d="M865.8,21.9l2.3-0.7v2.6h1.9v1.7h-1.9v4.9c0,1,0.4,1.3,1,1.3c0.4,0,0.7-0.1,0.9-0.2v1.6
		c-0.3,0.2-0.8,0.3-1.5,0.3c-1.7,0-2.6-0.8-2.6-2.8v-5.2h-1.5v-1.7h1.5V21.9z"/>
	<path fill="#FFFFFF" d="M871.2,31.1c0.4,0.1,1.3,0.6,2.4,0.6c0.8,0,1.5-0.2,1.5-0.9c0-0.4-0.2-0.7-1-1.2l-0.9-0.6
		c-1-0.6-2-1.2-2-2.7c0-1.3,1.3-2.7,3.3-2.7c1.2,0,2.1,0.3,2.4,0.4l-0.1,1.8c-0.6-0.2-1.2-0.4-2-0.4c-0.9,0-1.3,0.3-1.3,0.9
		c0,0.5,0.4,0.8,1.1,1.2l1.1,0.7c1.2,0.8,1.8,1.3,1.8,2.4c0,1.7-1.5,2.8-3.5,2.8c-1.2,0-2.1-0.3-2.6-0.5L871.2,31.1z"/>
</g>
<rect id="Rectangle_1350_copy_3_4_" x="-0.7" y="0" fill="#B8B9B9" width="452.4" height="55"/>
<g enable-background="new    ">
	<path fill="#FFFFFF" d="M155.7,20.5h6.5v1.9h-4.2v3.5h4v1.9h-4v5.6h-2.4V20.5z"/>
	<path fill="#FFFFFF" d="M171.5,31.8c0,0.6,0,1.1,0.1,1.6h-2.1c0-0.5-0.1-1-0.1-1.5l-0.1,0l0,0c-0.4,0.7-1,1.6-2.5,1.6
		c-2.2,0-2.8-1.6-2.8-3.5v-6.1h2.3v5.7c0,1.5,0.4,2.1,1.4,2.1c1.2,0,1.6-1.1,1.6-2.3v-5.4h2.3V31.8z"/>
	<path fill="#FFFFFF" d="M173.5,25.4c0-0.6,0-1.1-0.1-1.6h2.1c0,0.5,0.1,1,0.1,1.5h0c0.3-0.6,1-1.6,2.5-1.6c2.2,0,2.8,1.6,2.8,3.5
		v6.1h-2.3v-5.7c0-1.5-0.4-2.1-1.3-2.1c-1.2,0-1.6,1-1.6,2.2v5.5h-2.3V25.4z"/>
	<path fill="#FFFFFF" d="M191,19.6v12.2c0,0.7,0,1.3,0.1,1.6h-2.1c0-0.3-0.1-0.8-0.1-1.5h-0.1c-0.4,0.8-1.1,1.6-2.5,1.6
		c-2.4,0-3.3-2.2-3.3-4.9c0-3.1,1.2-4.9,3.3-4.9c1.4,0,2.1,0.8,2.5,1.5h0v-5.7H191z M186.8,31.8c1.4,0,1.8-1.5,1.8-3.2
		c0-1.8-0.5-3.2-1.8-3.2c-1.3,0-1.7,1.2-1.7,3.1C185.2,30.7,185.5,31.8,186.8,31.8z"/>
	<path fill="#FFFFFF" d="M198.2,20.5h2.4v12.8h-2.4V20.5z"/>
	<path fill="#FFFFFF" d="M203,25.4c0-0.6,0-1.1-0.1-1.6h2.1c0,0.5,0.1,1,0.1,1.5h0c0.3-0.6,1-1.6,2.5-1.6c2.2,0,2.8,1.6,2.8,3.5v6.1
		h-2.3v-5.7c0-1.5-0.4-2.1-1.3-2.1c-1.2,0-1.6,1-1.6,2.2v5.5H203V25.4z"/>
	<path fill="#FFFFFF" d="M211.8,23.9h2.4l1.9,7.3h0l2-7.3h2.2l-2.9,9.5h-2.7L211.8,23.9z"/>
	<path fill="#FFFFFF" d="M228.5,32.9c-0.5,0.2-1.5,0.6-2.8,0.6c-3.1,0-4.4-2.2-4.4-4.7c0-2.8,1.5-5,3.9-5c2.1,0,3.8,1.2,3.8,5.1v0.4
		h-5.5c0,1.6,0.6,2.6,2.4,2.6c1.4,0,2.1-0.4,2.5-0.7L228.5,32.9z M226.8,27.8c0-1.7-0.6-2.5-1.6-2.5c-1.2,0-1.7,1.3-1.7,2.5H226.8z"
		/>
	<path fill="#FFFFFF" d="M230.5,31.1c0.4,0.1,1.3,0.6,2.4,0.6c0.8,0,1.5-0.2,1.5-0.9c0-0.4-0.2-0.7-1-1.2l-0.9-0.6
		c-1-0.6-2-1.2-2-2.7c0-1.3,1.3-2.7,3.3-2.7c1.2,0,2.2,0.3,2.4,0.4l-0.1,1.8c-0.6-0.2-1.2-0.4-2-0.4c-0.9,0-1.3,0.3-1.3,0.9
		c0,0.5,0.4,0.8,1.1,1.2l1.1,0.7c1.2,0.8,1.8,1.3,1.8,2.4c0,1.7-1.5,2.8-3.6,2.8c-1.2,0-2.2-0.3-2.6-0.5L230.5,31.1z"/>
	<path fill="#FFFFFF" d="M239.1,21.9l2.3-0.7v2.6h1.9v1.7h-1.9v4.9c0,1,0.4,1.3,1,1.3c0.4,0,0.7-0.1,0.9-0.2v1.6
		c-0.4,0.2-0.9,0.3-1.5,0.3c-1.7,0-2.7-0.8-2.7-2.8v-5.2h-1.5v-1.7h1.5V21.9z"/>
	<path fill="#FFFFFF" d="M244.7,25.4c0-0.7,0-1.2-0.1-1.5h2.3c0,0.5,0.1,1,0.1,1.5h0c0.4-0.7,1.1-1.6,2.4-1.6c1.6,0,2.1,1,2.4,1.5
		c0.5-0.7,1.1-1.5,2.6-1.5c2.1,0,2.7,1.5,2.7,3.8v5.8h-2.3v-6c0-1.2-0.4-1.8-1.2-1.8c-1,0-1.6,1-1.6,2v5.7h-2.3v-6
		c0-1.2-0.4-1.8-1.2-1.8c-1,0-1.6,1-1.6,2v5.7h-2.3V25.4z"/>
	<path fill="#FFFFFF" d="M266.2,32.9c-0.5,0.2-1.5,0.6-2.8,0.6c-3.1,0-4.4-2.2-4.4-4.7c0-2.8,1.5-5,3.9-5c2.1,0,3.8,1.2,3.8,5.1v0.4
		h-5.5c0,1.6,0.6,2.6,2.4,2.6c1.4,0,2.1-0.4,2.5-0.7L266.2,32.9z M264.4,27.8c0-1.7-0.6-2.5-1.6-2.5c-1.2,0-1.7,1.3-1.7,2.5H264.4z"
		/>
	<path fill="#FFFFFF" d="M268.4,25.4c0-0.6,0-1.1-0.1-1.6h2.1c0,0.5,0.1,1,0.1,1.5h0c0.3-0.6,1-1.6,2.5-1.6c2.2,0,2.8,1.6,2.8,3.5
		v6.1h-2.3v-5.7c0-1.5-0.4-2.1-1.3-2.1c-1.2,0-1.6,1-1.6,2.2v5.5h-2.3V25.4z"/>
	<path fill="#FFFFFF" d="M278.9,21.9l2.3-0.7v2.6h1.9v1.7h-1.9v4.9c0,1,0.4,1.3,1,1.3c0.4,0,0.7-0.1,0.9-0.2v1.6
		c-0.4,0.2-0.9,0.3-1.5,0.3c-1.7,0-2.7-0.8-2.7-2.8v-5.2h-1.5v-1.7h1.5V21.9z"/>
	<path fill="#FFFFFF" d="M284.3,31.1c0.4,0.1,1.3,0.6,2.4,0.6c0.8,0,1.5-0.2,1.5-0.9c0-0.4-0.2-0.7-1-1.2l-0.9-0.6
		c-1-0.6-2-1.2-2-2.7c0-1.3,1.3-2.7,3.3-2.7c1.2,0,2.2,0.3,2.4,0.4l-0.1,1.8c-0.6-0.2-1.2-0.4-2-0.4c-0.9,0-1.3,0.3-1.3,0.9
		c0,0.5,0.4,0.8,1.1,1.2l1.1,0.7c1.2,0.8,1.8,1.3,1.8,2.4c0,1.7-1.5,2.8-3.6,2.8c-1.2,0-2.2-0.3-2.6-0.5L284.3,31.1z"/>
</g>
<path id="Shape_1353_copy_5" fill="#A2ACB5" d="M1139.1,54.7h0.9v338.4h-0.9V54.7z"/>
<path id="Shape_1353_copy_1_" fill="#656F75" d="M451.7-0.3h0.9V354h-0.9V-0.3z"/>
<rect id="Rectangle_1350_copy_2" x="-1" y="330" fill="#425460" width="1140.7" height="63"/>
<g>
	<g>
		<path fill="#FFFFFF" d="M437.5,355.6h3.3c4,0,6.1,2.2,6.1,6.4c0,4.3-2.6,6.4-6.1,6.4h-3.3V355.6z M439.9,366.7h0.8
			c2.6,0,3.8-1.8,3.8-4.6c0-2.8-1.2-4.6-3.8-4.6h-0.8V366.7z"/>
		<path fill="#FFFFFF" d="M455.8,368c-0.5,0.2-1.5,0.6-2.8,0.6c-3,0-4.4-2.2-4.4-4.7c0-2.8,1.5-5,3.9-5c2,0,3.8,1.2,3.8,5.1v0.4
			h-5.5c0,1.6,0.6,2.6,2.4,2.6c1.4,0,2.1-0.4,2.5-0.7L455.8,368z M454.1,362.9c0-1.7-0.6-2.5-1.6-2.5c-1.2,0-1.7,1.3-1.7,2.5H454.1z
			"/>
		<path fill="#FFFFFF" d="M458.5,359.6c0.6-0.3,1.5-0.7,3-0.7c2.9,0,3.6,1.4,3.6,3.8v4.1c0,0.7,0.1,1.3,0.1,1.7h-2.1
			c-0.1-0.4-0.1-0.8-0.1-1.3h0c-0.6,0.8-1.3,1.4-2.6,1.4c-1.5,0-2.8-1-2.8-2.8c0-2.6,2.1-3.2,5-3.2h0.5v-0.3c0-0.9-0.5-1.8-1.8-1.8
			c-1.1,0-2.1,0.6-2.6,0.9L458.5,359.6z M463,363.8h-0.2c-1.9,0-3.1,0.4-3.1,1.8c0,0.9,0.6,1.5,1.5,1.5c1.4,0,1.9-1,1.9-2.7V363.8z"
			/>
		<path fill="#FFFFFF" d="M467.4,354.7h2.3v13.8h-2.3V354.7z"/>
		<path fill="#FFFFFF" d="M477.5,360.7h-1.6V359h1.6v-1.9c0-1.4,0.6-2.6,2.7-2.6c0.6,0,1.2,0.1,1.6,0.2l-0.1,1.7
			c-0.3-0.1-0.6-0.1-0.9-0.1c-0.7,0-1.1,0.5-1.1,1.2v1.6h1.7v1.7h-1.7v7.8h-2.3V360.7z M482.8,354.7h2.3v13.8h-2.3V354.7z"/>
		<path fill="#FFFFFF" d="M491.2,358.9c1.9,0,4.2,1,4.2,4.9c0,4-2.2,4.9-4.2,4.9c-1.9,0-4.2-0.9-4.2-4.9
			C487.1,359.9,489.3,358.9,491.2,358.9z M491.2,367c1.5,0,1.8-1.7,1.8-3.3c0-1.6-0.3-3.3-1.8-3.3s-1.8,1.7-1.8,3.3
			C489.4,365.3,489.8,367,491.2,367z"/>
		<path fill="#FFFFFF" d="M503,361.1L503,361.1l-1.7,7.4h-2.5l-2.6-9.5h2.4l1.5,7.4h0l1.6-7.4h2.6l1.6,7.4h0l1.5-7.4h2.2l-2.5,9.5
			h-2.5L503,361.1z"/>
		<path fill="#FFFFFF" d="M516,359.6c0.6-0.3,1.5-0.7,3-0.7c2.9,0,3.6,1.4,3.6,3.8v4.1c0,0.7,0.1,1.3,0.1,1.7h-2.1
			c-0.1-0.4-0.1-0.8-0.1-1.3h0c-0.6,0.8-1.3,1.4-2.6,1.4c-1.5,0-2.8-1-2.8-2.8c0-2.6,2.1-3.2,5-3.2h0.5v-0.3c0-0.9-0.5-1.8-1.8-1.8
			c-1.1,0-2.1,0.6-2.6,0.9L516,359.6z M520.5,363.8h-0.2c-1.9,0-3.1,0.4-3.1,1.8c0,0.9,0.6,1.5,1.5,1.5c1.4,0,1.9-1,1.9-2.7V363.8z"
			/>
		<path fill="#FFFFFF" d="M524.7,360.6c0-0.6,0-1.1-0.1-1.6h2.1c0,0.5,0.1,1,0.1,1.5h0c0.3-0.6,1-1.6,2.5-1.6c2.1,0,2.8,1.6,2.8,3.5
			v6.1h-2.3v-5.7c0-1.5-0.4-2.1-1.3-2.1c-1.2,0-1.6,1-1.6,2.2v5.5h-2.3V360.6z"/>
		<path fill="#FFFFFF" d="M542,354.7v12.2c0,0.7,0,1.3,0.1,1.6H540c0-0.3-0.1-0.8-0.1-1.5h-0.1c-0.4,0.8-1,1.6-2.5,1.6
			c-2.4,0-3.3-2.2-3.3-4.9c0-3.1,1.2-4.9,3.3-4.9c1.4,0,2.1,0.8,2.4,1.5h0v-5.7H542z M538,366.9c1.3,0,1.8-1.5,1.8-3.2
			c0-1.8-0.5-3.2-1.8-3.2c-1.3,0-1.7,1.2-1.7,3.1C536.3,365.8,536.6,366.9,538,366.9z"/>
		<path fill="#FFFFFF" d="M549.3,355.6h2.4v12.8h-2.4V355.6z"/>
		<path fill="#FFFFFF" d="M554,360.6c0-0.6,0-1.1-0.1-1.6h2.1c0,0.5,0.1,1,0.1,1.5h0c0.3-0.6,1-1.6,2.5-1.6c2.1,0,2.8,1.6,2.8,3.5
			v6.1h-2.3v-5.7c0-1.5-0.4-2.1-1.3-2.1c-1.2,0-1.6,1-1.6,2.2v5.5H554V360.6z"/>
		<path fill="#FFFFFF" d="M564.3,360.7h-1.6V359h1.6v-1.9c0-1.4,0.6-2.6,2.7-2.6c0.6,0,1.2,0.1,1.6,0.2l-0.1,1.7
			c-0.3-0.1-0.6-0.1-0.9-0.1c-0.7,0-1.1,0.5-1.1,1.2v1.6h1.7v1.7h-1.7v7.8h-2.3V360.7z"/>
		<path fill="#FFFFFF" d="M573.6,358.9c1.9,0,4.2,1,4.2,4.9c0,4-2.2,4.9-4.2,4.9c-1.9,0-4.2-0.9-4.2-4.9
			C569.4,359.9,571.6,358.9,573.6,358.9z M573.6,367c1.5,0,1.8-1.7,1.8-3.3c0-1.6-0.3-3.3-1.8-3.3s-1.8,1.7-1.8,3.3
			C571.8,365.3,572.1,367,573.6,367z"/>
		<path fill="#FFFFFF" d="M579.6,360.6c0-0.6,0-1.1-0.1-1.6h2.1c0,0.6,0.1,1.2,0.1,1.7h0c0.3-0.7,1-1.9,2.4-1.9c0.1,0,0.3,0,0.4,0.1
			v2.1c-0.2-0.1-0.4-0.1-0.6-0.1c-0.9,0-2,0.6-2,2.3v5.2h-2.3V360.6z"/>
		<path fill="#FFFFFF" d="M585.9,360.6c0-0.7,0-1.2-0.1-1.5h2.3c0,0.5,0.1,1,0.1,1.5h0c0.3-0.7,1.1-1.6,2.4-1.6c1.6,0,2.1,1,2.4,1.5
			c0.5-0.7,1.1-1.5,2.5-1.5c2.1,0,2.7,1.5,2.7,3.8v5.8H596v-6c0-1.2-0.4-1.8-1.2-1.8c-1,0-1.5,1-1.5,2v5.7H591v-6
			c0-1.2-0.4-1.8-1.2-1.8c-1,0-1.5,1-1.5,2v5.7h-2.3V360.6z"/>
		<path fill="#FFFFFF" d="M600.7,359.6c0.6-0.3,1.5-0.7,3-0.7c2.9,0,3.6,1.4,3.6,3.8v4.1c0,0.7,0.1,1.3,0.1,1.7h-2.1
			c-0.1-0.4-0.1-0.8-0.1-1.3h0c-0.6,0.8-1.3,1.4-2.6,1.4c-1.5,0-2.8-1-2.8-2.8c0-2.6,2.1-3.2,5-3.2h0.5v-0.3c0-0.9-0.5-1.8-1.8-1.8
			c-1.1,0-2.1,0.6-2.6,0.9L600.7,359.6z M605.2,363.8H605c-1.9,0-3.1,0.4-3.1,1.8c0,0.9,0.6,1.5,1.5,1.5c1.4,0,1.9-1,1.9-2.7V363.8z
			"/>
		<path fill="#FFFFFF" d="M610.3,357.1l2.3-0.7v2.6h1.9v1.7h-1.9v4.9c0,1,0.4,1.3,1,1.3c0.4,0,0.7-0.1,0.9-0.2v1.6
			c-0.3,0.2-0.8,0.3-1.5,0.3c-1.7,0-2.6-0.8-2.6-2.8v-5.2h-1.5V359h1.5V357.1z"/>
		<path fill="#FFFFFF" d="M616.1,355h2.4v2.2h-2.4V355z M616.1,359h2.3v9.5h-2.3V359z"/>
		<path fill="#FFFFFF" d="M624.6,358.9c1.9,0,4.2,1,4.2,4.9c0,4-2.2,4.9-4.2,4.9c-1.9,0-4.2-0.9-4.2-4.9
			C620.4,359.9,622.7,358.9,624.6,358.9z M624.6,367c1.5,0,1.8-1.7,1.8-3.3c0-1.6-0.3-3.3-1.8-3.3s-1.8,1.7-1.8,3.3
			C622.8,365.3,623.1,367,624.6,367z"/>
		<path fill="#FFFFFF" d="M630.6,360.6c0-0.6,0-1.1-0.1-1.6h2.1c0,0.5,0.1,1,0.1,1.5h0c0.3-0.6,1-1.6,2.5-1.6c2.1,0,2.8,1.6,2.8,3.5
			v6.1h-2.3v-5.7c0-1.5-0.4-2.1-1.3-2.1c-1.2,0-1.6,1-1.6,2.2v5.5h-2.3V360.6z"/>
		<path fill="#FFFFFF" d="M645,366c0.5,0.3,1.5,0.8,2.7,0.8c1,0,1.9-0.6,1.9-1.9c0-0.9-0.5-1.3-1.7-1.9l-1.2-0.7
			c-1.3-0.7-2.1-1.7-2.1-3.4c0-2.3,1.9-3.5,4-3.5c1.4,0,2.3,0.3,2.7,0.5l-0.1,2c-0.6-0.2-1.3-0.6-2.4-0.6c-1.2,0-1.8,0.6-1.8,1.5
			c0,1,0.6,1.3,1.4,1.7l1.4,0.8c1.5,0.8,2.2,1.7,2.2,3.5c0,2.6-1.9,3.9-4.3,3.9c-1.3,0-2.3-0.2-2.9-0.6L645,366z"/>
		<path fill="#FFFFFF" d="M654.1,354.7h2.3v5.5h0.1c0.4-0.6,0.9-1.4,2.4-1.4c2.1,0,2.8,1.6,2.8,3.5v6.1h-2.3v-5.7
			c0-1.5-0.4-2.1-1.3-2.1c-1.2,0-1.6,1-1.6,2.2v5.5h-2.3V354.7z"/>
		<path fill="#FFFFFF" d="M664,359.6c0.6-0.3,1.5-0.7,3-0.7c2.9,0,3.6,1.4,3.6,3.8v4.1c0,0.7,0.1,1.3,0.1,1.7h-2.1
			c-0.1-0.4-0.1-0.8-0.1-1.3h0c-0.6,0.8-1.3,1.4-2.6,1.4c-1.5,0-2.8-1-2.8-2.8c0-2.6,2.1-3.2,5-3.2h0.5v-0.3c0-0.9-0.5-1.8-1.8-1.8
			c-1.1,0-2.1,0.6-2.6,0.9L664,359.6z M668.5,363.8h-0.2c-1.9,0-3.1,0.4-3.1,1.8c0,0.9,0.6,1.5,1.5,1.5c1.4,0,1.9-1,1.9-2.7V363.8z"
			/>
		<path fill="#FFFFFF" d="M672.8,360.6c0-0.6,0-1.1-0.1-1.6h2.1c0,0.6,0.1,1.2,0.1,1.7h0c0.3-0.7,1-1.9,2.4-1.9c0.1,0,0.3,0,0.4,0.1
			v2.1c-0.2-0.1-0.4-0.1-0.6-0.1c-0.9,0-2,0.6-2,2.3v5.2h-2.3V360.6z"/>
		<path fill="#FFFFFF" d="M679.4,355h2.4v2.2h-2.4V355z M679.5,359h2.3v9.5h-2.3V359z"/>
		<path fill="#FFFFFF" d="M684,360.6c0-0.6,0-1.1-0.1-1.6h2.1c0,0.5,0.1,1,0.1,1.5h0c0.3-0.6,1-1.6,2.5-1.6c2.1,0,2.8,1.6,2.8,3.5
			v6.1h-2.3v-5.7c0-1.5-0.4-2.1-1.3-2.1c-1.2,0-1.6,1-1.6,2.2v5.5H684V360.6z"/>
		<path fill="#FFFFFF" d="M693.8,369.9c0.5,0.3,1.6,0.8,2.8,0.8c2.1,0,2.5-1.5,2.5-3v-0.9h0c-0.4,0.7-1,1.6-2.5,1.6
			c-1.3,0-3.3-0.9-3.3-4.7c0-2.6,0.9-4.9,3.4-4.9c1.4,0,2,0.8,2.5,1.6h0.1c0-0.5,0.1-1,0.1-1.5h2.1c0,0.5-0.1,1-0.1,1.5v7
			c0,3-0.9,5.1-4.4,5.1c-1.5,0-2.7-0.4-3.3-0.6L693.8,369.9z M697.1,366.8c1.4,0,2-1,2-3.2c0-2-0.8-3-1.8-3c-1.2,0-1.7,1.1-1.7,3
			C695.6,365.9,696.3,366.8,697.1,366.8z"/>
	</g>
</g>
</svg>
